<?xml version="1.0" encoding="utf-8" standalone="no"?>
<!DOCTYPE svg PUBLIC "-//W3C//DTD SVG 1.1//EN"
  "http://www.w3.org/Graphics/SVG/1.1/DTD/svg11.dtd">
<svg xmlns:xlink="http://www.w3.org/1999/xlink" width="460.8pt" height="345.6pt" viewBox="0 0 460.8 345.6" xmlns="http://www.w3.org/2000/svg" version="1.1">
 <metadata>
  <rdf:RDF xmlns:dc="http://purl.org/dc/elements/1.1/" xmlns:cc="http://creativecommons.org/ns#" xmlns:rdf="http://www.w3.org/1999/02/22-rdf-syntax-ns#">
   <cc:Work>
    <dc:type rdf:resource="http://purl.org/dc/dcmitype/StillImage"/>
    <dc:date>2025-03-25T00:27:32.788729</dc:date>
    <dc:format>image/svg+xml</dc:format>
    <dc:creator>
     <cc:Agent>
      <dc:title>Matplotlib v3.10.1, https://matplotlib.org/</dc:title>
     </cc:Agent>
    </dc:creator>
   </cc:Work>
  </rdf:RDF>
 </metadata>
 <defs>
  <style type="text/css">*{stroke-linejoin: round; stroke-linecap: butt}</style>
 </defs>
 <g id="figure_1">
  <g id="patch_1">
   <path d="M 0 345.6 
L 460.8 345.6 
L 460.8 0 
L 0 0 
z
" style="fill: #ffffff"/>
  </g>
  <g id="axes_1">
   <g id="patch_2">
    <path d="M 57.6 307.584 
L 414.72 307.584 
L 414.72 41.472 
L 57.6 41.472 
z
" style="fill: #ffffff"/>
   </g>
   <g id="line2d_1">
    <path d="M 73.832727 295.36947 
L 398.487273 53.568 
L 398.487273 53.568 
" clip-path="url(#pe867654dc4)" style="fill: none; stroke: #0000ff; stroke-linecap: square"/>
   </g>
   <g id="matplotlib.axis_1">
    <g id="xtick_1">
     <g id="line2d_2">
      <defs>
       <path id="mb0f5cb6f1c" d="M 0 0 
L 0 3.5 
" style="stroke: #000000; stroke-width: 0.8"/>
      </defs>
      <g>
       <use xlink:href="#mb0f5cb6f1c" x="73.19615" y="307.584" style="stroke: #000000; stroke-width: 0.8"/>
      </g>
     </g>
     <g id="text_1">
      <!-- 0 -->
      <g transform="translate(70.0149 322.182437) scale(0.1 -0.1)">
       <defs>
        <path id="DejaVuSans-30" d="M 2034 4250 
Q 1547 4250 1301 3770 
Q 1056 3291 1056 2328 
Q 1056 1369 1301 889 
Q 1547 409 2034 409 
Q 2525 409 2770 889 
Q 3016 1369 3016 2328 
Q 3016 3291 2770 3770 
Q 2525 4250 2034 4250 
z
M 2034 4750 
Q 2819 4750 3233 4129 
Q 3647 3509 3647 2328 
Q 3647 1150 3233 529 
Q 2819 -91 2034 -91 
Q 1250 -91 836 529 
Q 422 1150 422 2328 
Q 422 3509 836 4129 
Q 1250 4750 2034 4750 
z
" transform="scale(0.015625)"/>
       </defs>
       <use xlink:href="#DejaVuSans-30"/>
      </g>
     </g>
    </g>
    <g id="xtick_2">
     <g id="line2d_3">
      <g>
       <use xlink:href="#mb0f5cb6f1c" x="136.853904" y="307.584" style="stroke: #000000; stroke-width: 0.8"/>
      </g>
     </g>
     <g id="text_2">
      <!-- 100 -->
      <g transform="translate(127.310154 322.182437) scale(0.1 -0.1)">
       <defs>
        <path id="DejaVuSans-31" d="M 794 531 
L 1825 531 
L 1825 4091 
L 703 3866 
L 703 4441 
L 1819 4666 
L 2450 4666 
L 2450 531 
L 3481 531 
L 3481 0 
L 794 0 
L 794 531 
z
" transform="scale(0.015625)"/>
       </defs>
       <use xlink:href="#DejaVuSans-31"/>
       <use xlink:href="#DejaVuSans-30" transform="translate(63.623047 0)"/>
       <use xlink:href="#DejaVuSans-30" transform="translate(127.246094 0)"/>
      </g>
     </g>
    </g>
    <g id="xtick_3">
     <g id="line2d_4">
      <g>
       <use xlink:href="#mb0f5cb6f1c" x="200.511658" y="307.584" style="stroke: #000000; stroke-width: 0.8"/>
      </g>
     </g>
     <g id="text_3">
      <!-- 200 -->
      <g transform="translate(190.967908 322.182437) scale(0.1 -0.1)">
       <defs>
        <path id="DejaVuSans-32" d="M 1228 531 
L 3431 531 
L 3431 0 
L 469 0 
L 469 531 
Q 828 903 1448 1529 
Q 2069 2156 2228 2338 
Q 2531 2678 2651 2914 
Q 2772 3150 2772 3378 
Q 2772 3750 2511 3984 
Q 2250 4219 1831 4219 
Q 1534 4219 1204 4116 
Q 875 4013 500 3803 
L 500 4441 
Q 881 4594 1212 4672 
Q 1544 4750 1819 4750 
Q 2544 4750 2975 4387 
Q 3406 4025 3406 3419 
Q 3406 3131 3298 2873 
Q 3191 2616 2906 2266 
Q 2828 2175 2409 1742 
Q 1991 1309 1228 531 
z
" transform="scale(0.015625)"/>
       </defs>
       <use xlink:href="#DejaVuSans-32"/>
       <use xlink:href="#DejaVuSans-30" transform="translate(63.623047 0)"/>
       <use xlink:href="#DejaVuSans-30" transform="translate(127.246094 0)"/>
      </g>
     </g>
    </g>
    <g id="xtick_4">
     <g id="line2d_5">
      <g>
       <use xlink:href="#mb0f5cb6f1c" x="264.169412" y="307.584" style="stroke: #000000; stroke-width: 0.8"/>
      </g>
     </g>
     <g id="text_4">
      <!-- 300 -->
      <g transform="translate(254.625662 322.182437) scale(0.1 -0.1)">
       <defs>
        <path id="DejaVuSans-33" d="M 2597 2516 
Q 3050 2419 3304 2112 
Q 3559 1806 3559 1356 
Q 3559 666 3084 287 
Q 2609 -91 1734 -91 
Q 1441 -91 1130 -33 
Q 819 25 488 141 
L 488 750 
Q 750 597 1062 519 
Q 1375 441 1716 441 
Q 2309 441 2620 675 
Q 2931 909 2931 1356 
Q 2931 1769 2642 2001 
Q 2353 2234 1838 2234 
L 1294 2234 
L 1294 2753 
L 1863 2753 
Q 2328 2753 2575 2939 
Q 2822 3125 2822 3475 
Q 2822 3834 2567 4026 
Q 2313 4219 1838 4219 
Q 1578 4219 1281 4162 
Q 984 4106 628 3988 
L 628 4550 
Q 988 4650 1302 4700 
Q 1616 4750 1894 4750 
Q 2613 4750 3031 4423 
Q 3450 4097 3450 3541 
Q 3450 3153 3228 2886 
Q 3006 2619 2597 2516 
z
" transform="scale(0.015625)"/>
       </defs>
       <use xlink:href="#DejaVuSans-33"/>
       <use xlink:href="#DejaVuSans-30" transform="translate(63.623047 0)"/>
       <use xlink:href="#DejaVuSans-30" transform="translate(127.246094 0)"/>
      </g>
     </g>
    </g>
    <g id="xtick_5">
     <g id="line2d_6">
      <g>
       <use xlink:href="#mb0f5cb6f1c" x="327.827166" y="307.584" style="stroke: #000000; stroke-width: 0.8"/>
      </g>
     </g>
     <g id="text_5">
      <!-- 400 -->
      <g transform="translate(318.283416 322.182437) scale(0.1 -0.1)">
       <defs>
        <path id="DejaVuSans-34" d="M 2419 4116 
L 825 1625 
L 2419 1625 
L 2419 4116 
z
M 2253 4666 
L 3047 4666 
L 3047 1625 
L 3713 1625 
L 3713 1100 
L 3047 1100 
L 3047 0 
L 2419 0 
L 2419 1100 
L 313 1100 
L 313 1709 
L 2253 4666 
z
" transform="scale(0.015625)"/>
       </defs>
       <use xlink:href="#DejaVuSans-34"/>
       <use xlink:href="#DejaVuSans-30" transform="translate(63.623047 0)"/>
       <use xlink:href="#DejaVuSans-30" transform="translate(127.246094 0)"/>
      </g>
     </g>
    </g>
    <g id="xtick_6">
     <g id="line2d_7">
      <g>
       <use xlink:href="#mb0f5cb6f1c" x="391.48492" y="307.584" style="stroke: #000000; stroke-width: 0.8"/>
      </g>
     </g>
     <g id="text_6">
      <!-- 500 -->
      <g transform="translate(381.94117 322.182437) scale(0.1 -0.1)">
       <defs>
        <path id="DejaVuSans-35" d="M 691 4666 
L 3169 4666 
L 3169 4134 
L 1269 4134 
L 1269 2991 
Q 1406 3038 1543 3061 
Q 1681 3084 1819 3084 
Q 2600 3084 3056 2656 
Q 3513 2228 3513 1497 
Q 3513 744 3044 326 
Q 2575 -91 1722 -91 
Q 1428 -91 1123 -41 
Q 819 9 494 109 
L 494 744 
Q 775 591 1075 516 
Q 1375 441 1709 441 
Q 2250 441 2565 725 
Q 2881 1009 2881 1497 
Q 2881 1984 2565 2268 
Q 2250 2553 1709 2553 
Q 1456 2553 1204 2497 
Q 953 2441 691 2322 
L 691 4666 
z
" transform="scale(0.015625)"/>
       </defs>
       <use xlink:href="#DejaVuSans-35"/>
       <use xlink:href="#DejaVuSans-30" transform="translate(63.623047 0)"/>
       <use xlink:href="#DejaVuSans-30" transform="translate(127.246094 0)"/>
      </g>
     </g>
    </g>
    <g id="text_7">
     <!-- n -->
     <g transform="translate(232.99125 335.860562) scale(0.1 -0.1)">
      <defs>
       <path id="DejaVuSans-6e" d="M 3513 2113 
L 3513 0 
L 2938 0 
L 2938 2094 
Q 2938 2591 2744 2837 
Q 2550 3084 2163 3084 
Q 1697 3084 1428 2787 
Q 1159 2491 1159 1978 
L 1159 0 
L 581 0 
L 581 3500 
L 1159 3500 
L 1159 2956 
Q 1366 3272 1645 3428 
Q 1925 3584 2291 3584 
Q 2894 3584 3203 3211 
Q 3513 2838 3513 2113 
z
" transform="scale(0.015625)"/>
      </defs>
      <use xlink:href="#DejaVuSans-6e"/>
     </g>
    </g>
   </g>
   <g id="matplotlib.axis_2">
    <g id="ytick_1">
     <g id="line2d_8">
      <defs>
       <path id="md0173d2727" d="M 0 0 
L -3.5 0 
" style="stroke: #000000; stroke-width: 0.8"/>
      </defs>
      <g>
       <use xlink:href="#md0173d2727" x="57.6" y="295.84359" style="stroke: #000000; stroke-width: 0.8"/>
      </g>
     </g>
     <g id="text_8">
      <!-- 0 -->
      <g transform="translate(44.2375 299.642809) scale(0.1 -0.1)">
       <use xlink:href="#DejaVuSans-30"/>
      </g>
     </g>
    </g>
    <g id="ytick_2">
     <g id="line2d_9">
      <g>
       <use xlink:href="#md0173d2727" x="57.6" y="248.431537" style="stroke: #000000; stroke-width: 0.8"/>
      </g>
     </g>
     <g id="text_9">
      <!-- 100 -->
      <g transform="translate(31.5125 252.230756) scale(0.1 -0.1)">
       <use xlink:href="#DejaVuSans-31"/>
       <use xlink:href="#DejaVuSans-30" transform="translate(63.623047 0)"/>
       <use xlink:href="#DejaVuSans-30" transform="translate(127.246094 0)"/>
      </g>
     </g>
    </g>
    <g id="ytick_3">
     <g id="line2d_10">
      <g>
       <use xlink:href="#md0173d2727" x="57.6" y="201.019485" style="stroke: #000000; stroke-width: 0.8"/>
      </g>
     </g>
     <g id="text_10">
      <!-- 200 -->
      <g transform="translate(31.5125 204.818703) scale(0.1 -0.1)">
       <use xlink:href="#DejaVuSans-32"/>
       <use xlink:href="#DejaVuSans-30" transform="translate(63.623047 0)"/>
       <use xlink:href="#DejaVuSans-30" transform="translate(127.246094 0)"/>
      </g>
     </g>
    </g>
    <g id="ytick_4">
     <g id="line2d_11">
      <g>
       <use xlink:href="#md0173d2727" x="57.6" y="153.607432" style="stroke: #000000; stroke-width: 0.8"/>
      </g>
     </g>
     <g id="text_11">
      <!-- 300 -->
      <g transform="translate(31.5125 157.40665) scale(0.1 -0.1)">
       <use xlink:href="#DejaVuSans-33"/>
       <use xlink:href="#DejaVuSans-30" transform="translate(63.623047 0)"/>
       <use xlink:href="#DejaVuSans-30" transform="translate(127.246094 0)"/>
      </g>
     </g>
    </g>
    <g id="ytick_5">
     <g id="line2d_12">
      <g>
       <use xlink:href="#md0173d2727" x="57.6" y="106.195379" style="stroke: #000000; stroke-width: 0.8"/>
      </g>
     </g>
     <g id="text_12">
      <!-- 400 -->
      <g transform="translate(31.5125 109.994597) scale(0.1 -0.1)">
       <use xlink:href="#DejaVuSans-34"/>
       <use xlink:href="#DejaVuSans-30" transform="translate(63.623047 0)"/>
       <use xlink:href="#DejaVuSans-30" transform="translate(127.246094 0)"/>
      </g>
     </g>
    </g>
    <g id="ytick_6">
     <g id="line2d_13">
      <g>
       <use xlink:href="#md0173d2727" x="57.6" y="58.783326" style="stroke: #000000; stroke-width: 0.8"/>
      </g>
     </g>
     <g id="text_13">
      <!-- 500 -->
      <g transform="translate(31.5125 62.582545) scale(0.1 -0.1)">
       <use xlink:href="#DejaVuSans-35"/>
       <use xlink:href="#DejaVuSans-30" transform="translate(63.623047 0)"/>
       <use xlink:href="#DejaVuSans-30" transform="translate(127.246094 0)"/>
      </g>
     </g>
    </g>
    <g id="text_14">
     <!-- (n*m+a)/2^e -->
     <g transform="translate(25.432812 208.354562) rotate(-90) scale(0.1 -0.1)">
      <defs>
       <path id="DejaVuSans-28" d="M 1984 4856 
Q 1566 4138 1362 3434 
Q 1159 2731 1159 2009 
Q 1159 1288 1364 580 
Q 1569 -128 1984 -844 
L 1484 -844 
Q 1016 -109 783 600 
Q 550 1309 550 2009 
Q 550 2706 781 3412 
Q 1013 4119 1484 4856 
L 1984 4856 
z
" transform="scale(0.015625)"/>
       <path id="DejaVuSans-2a" d="M 3009 3897 
L 1888 3291 
L 3009 2681 
L 2828 2375 
L 1778 3009 
L 1778 1831 
L 1422 1831 
L 1422 3009 
L 372 2375 
L 191 2681 
L 1313 3291 
L 191 3897 
L 372 4206 
L 1422 3572 
L 1422 4750 
L 1778 4750 
L 1778 3572 
L 2828 4206 
L 3009 3897 
z
" transform="scale(0.015625)"/>
       <path id="DejaVuSans-6d" d="M 3328 2828 
Q 3544 3216 3844 3400 
Q 4144 3584 4550 3584 
Q 5097 3584 5394 3201 
Q 5691 2819 5691 2113 
L 5691 0 
L 5113 0 
L 5113 2094 
Q 5113 2597 4934 2840 
Q 4756 3084 4391 3084 
Q 3944 3084 3684 2787 
Q 3425 2491 3425 1978 
L 3425 0 
L 2847 0 
L 2847 2094 
Q 2847 2600 2669 2842 
Q 2491 3084 2119 3084 
Q 1678 3084 1418 2786 
Q 1159 2488 1159 1978 
L 1159 0 
L 581 0 
L 581 3500 
L 1159 3500 
L 1159 2956 
Q 1356 3278 1631 3431 
Q 1906 3584 2284 3584 
Q 2666 3584 2933 3390 
Q 3200 3197 3328 2828 
z
" transform="scale(0.015625)"/>
       <path id="DejaVuSans-2b" d="M 2944 4013 
L 2944 2272 
L 4684 2272 
L 4684 1741 
L 2944 1741 
L 2944 0 
L 2419 0 
L 2419 1741 
L 678 1741 
L 678 2272 
L 2419 2272 
L 2419 4013 
L 2944 4013 
z
" transform="scale(0.015625)"/>
       <path id="DejaVuSans-61" d="M 2194 1759 
Q 1497 1759 1228 1600 
Q 959 1441 959 1056 
Q 959 750 1161 570 
Q 1363 391 1709 391 
Q 2188 391 2477 730 
Q 2766 1069 2766 1631 
L 2766 1759 
L 2194 1759 
z
M 3341 1997 
L 3341 0 
L 2766 0 
L 2766 531 
Q 2569 213 2275 61 
Q 1981 -91 1556 -91 
Q 1019 -91 701 211 
Q 384 513 384 1019 
Q 384 1609 779 1909 
Q 1175 2209 1959 2209 
L 2766 2209 
L 2766 2266 
Q 2766 2663 2505 2880 
Q 2244 3097 1772 3097 
Q 1472 3097 1187 3025 
Q 903 2953 641 2809 
L 641 3341 
Q 956 3463 1253 3523 
Q 1550 3584 1831 3584 
Q 2591 3584 2966 3190 
Q 3341 2797 3341 1997 
z
" transform="scale(0.015625)"/>
       <path id="DejaVuSans-29" d="M 513 4856 
L 1013 4856 
Q 1481 4119 1714 3412 
Q 1947 2706 1947 2009 
Q 1947 1309 1714 600 
Q 1481 -109 1013 -844 
L 513 -844 
Q 928 -128 1133 580 
Q 1338 1288 1338 2009 
Q 1338 2731 1133 3434 
Q 928 4138 513 4856 
z
" transform="scale(0.015625)"/>
       <path id="DejaVuSans-2f" d="M 1625 4666 
L 2156 4666 
L 531 -594 
L 0 -594 
L 1625 4666 
z
" transform="scale(0.015625)"/>
       <path id="DejaVuSans-5e" d="M 2988 4666 
L 4684 2925 
L 4056 2925 
L 2681 4159 
L 1306 2925 
L 678 2925 
L 2375 4666 
L 2988 4666 
z
" transform="scale(0.015625)"/>
       <path id="DejaVuSans-65" d="M 3597 1894 
L 3597 1613 
L 953 1613 
Q 991 1019 1311 708 
Q 1631 397 2203 397 
Q 2534 397 2845 478 
Q 3156 559 3463 722 
L 3463 178 
Q 3153 47 2828 -22 
Q 2503 -91 2169 -91 
Q 1331 -91 842 396 
Q 353 884 353 1716 
Q 353 2575 817 3079 
Q 1281 3584 2069 3584 
Q 2775 3584 3186 3129 
Q 3597 2675 3597 1894 
z
M 3022 2063 
Q 3016 2534 2758 2815 
Q 2500 3097 2075 3097 
Q 1594 3097 1305 2825 
Q 1016 2553 972 2059 
L 3022 2063 
z
" transform="scale(0.015625)"/>
      </defs>
      <use xlink:href="#DejaVuSans-28"/>
      <use xlink:href="#DejaVuSans-6e" transform="translate(39.013672 0)"/>
      <use xlink:href="#DejaVuSans-2a" transform="translate(102.392578 0)"/>
      <use xlink:href="#DejaVuSans-6d" transform="translate(152.392578 0)"/>
      <use xlink:href="#DejaVuSans-2b" transform="translate(249.804688 0)"/>
      <use xlink:href="#DejaVuSans-61" transform="translate(333.59375 0)"/>
      <use xlink:href="#DejaVuSans-29" transform="translate(394.873047 0)"/>
      <use xlink:href="#DejaVuSans-2f" transform="translate(433.886719 0)"/>
      <use xlink:href="#DejaVuSans-32" transform="translate(467.578125 0)"/>
      <use xlink:href="#DejaVuSans-5e" transform="translate(531.201172 0)"/>
      <use xlink:href="#DejaVuSans-65" transform="translate(614.990234 0)"/>
     </g>
    </g>
   </g>
   <g id="PathCollection_1">
    <defs>
     <path id="m96891d4484" d="M 0 0.25 
C 0.066301 0.25 0.129895 0.223658 0.176777 0.176777 
C 0.223658 0.129895 0.25 0.066301 0.25 0 
C 0.25 -0.066301 0.223658 -0.129895 0.176777 -0.176777 
C 0.129895 -0.223658 0.066301 -0.25 0 -0.25 
C -0.066301 -0.25 -0.129895 -0.223658 -0.176777 -0.176777 
C -0.223658 -0.129895 -0.25 -0.066301 -0.25 0 
C -0.25 0.066301 -0.223658 0.129895 -0.176777 0.176777 
C -0.129895 0.223658 -0.066301 0.25 0 0.25 
z
" style="stroke: #ff0000"/>
    </defs>
    <g clip-path="url(#pe867654dc4)">
     <use xlink:href="#m96891d4484" x="73.832727" y="295.488" style="fill: #ff0000; stroke: #ff0000"/>
     <use xlink:href="#m96891d4484" x="75.105882" y="294.895349" style="fill: #ff0000; stroke: #ff0000"/>
     <use xlink:href="#m96891d4484" x="76.379037" y="294.302699" style="fill: #ff0000; stroke: #ff0000"/>
     <use xlink:href="#m96891d4484" x="77.652193" y="293.710048" style="fill: #ff0000; stroke: #ff0000"/>
     <use xlink:href="#m96891d4484" x="78.925348" y="293.117397" style="fill: #ff0000; stroke: #ff0000"/>
     <use xlink:href="#m96891d4484" x="80.198503" y="292.524747" style="fill: #ff0000; stroke: #ff0000"/>
     <use xlink:href="#m96891d4484" x="81.471658" y="291.932096" style="fill: #ff0000; stroke: #ff0000"/>
     <use xlink:href="#m96891d4484" x="82.744813" y="291.339445" style="fill: #ff0000; stroke: #ff0000"/>
     <use xlink:href="#m96891d4484" x="84.017968" y="290.746795" style="fill: #ff0000; stroke: #ff0000"/>
     <use xlink:href="#m96891d4484" x="85.291123" y="290.154144" style="fill: #ff0000; stroke: #ff0000"/>
     <use xlink:href="#m96891d4484" x="86.564278" y="289.561493" style="fill: #ff0000; stroke: #ff0000"/>
     <use xlink:href="#m96891d4484" x="87.837433" y="288.968843" style="fill: #ff0000; stroke: #ff0000"/>
     <use xlink:href="#m96891d4484" x="89.110588" y="288.376192" style="fill: #ff0000; stroke: #ff0000"/>
     <use xlink:href="#m96891d4484" x="90.383743" y="287.783541" style="fill: #ff0000; stroke: #ff0000"/>
     <use xlink:href="#m96891d4484" x="91.656898" y="287.190891" style="fill: #ff0000; stroke: #ff0000"/>
     <use xlink:href="#m96891d4484" x="92.930053" y="286.59824" style="fill: #ff0000; stroke: #ff0000"/>
     <use xlink:href="#m96891d4484" x="94.203209" y="286.005589" style="fill: #ff0000; stroke: #ff0000"/>
     <use xlink:href="#m96891d4484" x="95.476364" y="285.412939" style="fill: #ff0000; stroke: #ff0000"/>
     <use xlink:href="#m96891d4484" x="96.749519" y="284.820288" style="fill: #ff0000; stroke: #ff0000"/>
     <use xlink:href="#m96891d4484" x="98.022674" y="284.227637" style="fill: #ff0000; stroke: #ff0000"/>
     <use xlink:href="#m96891d4484" x="99.295829" y="283.634987" style="fill: #ff0000; stroke: #ff0000"/>
     <use xlink:href="#m96891d4484" x="100.568984" y="283.042336" style="fill: #ff0000; stroke: #ff0000"/>
     <use xlink:href="#m96891d4484" x="101.842139" y="282.449685" style="fill: #ff0000; stroke: #ff0000"/>
     <use xlink:href="#m96891d4484" x="103.115294" y="281.857035" style="fill: #ff0000; stroke: #ff0000"/>
     <use xlink:href="#m96891d4484" x="104.388449" y="281.264384" style="fill: #ff0000; stroke: #ff0000"/>
     <use xlink:href="#m96891d4484" x="105.661604" y="280.671733" style="fill: #ff0000; stroke: #ff0000"/>
     <use xlink:href="#m96891d4484" x="106.934759" y="280.079083" style="fill: #ff0000; stroke: #ff0000"/>
     <use xlink:href="#m96891d4484" x="108.207914" y="279.486432" style="fill: #ff0000; stroke: #ff0000"/>
     <use xlink:href="#m96891d4484" x="109.48107" y="278.893781" style="fill: #ff0000; stroke: #ff0000"/>
     <use xlink:href="#m96891d4484" x="110.754225" y="278.301131" style="fill: #ff0000; stroke: #ff0000"/>
     <use xlink:href="#m96891d4484" x="112.02738" y="277.70848" style="fill: #ff0000; stroke: #ff0000"/>
     <use xlink:href="#m96891d4484" x="113.300535" y="277.115829" style="fill: #ff0000; stroke: #ff0000"/>
     <use xlink:href="#m96891d4484" x="114.57369" y="276.523179" style="fill: #ff0000; stroke: #ff0000"/>
     <use xlink:href="#m96891d4484" x="115.846845" y="275.930528" style="fill: #ff0000; stroke: #ff0000"/>
     <use xlink:href="#m96891d4484" x="117.12" y="275.337878" style="fill: #ff0000; stroke: #ff0000"/>
     <use xlink:href="#m96891d4484" x="118.393155" y="274.745227" style="fill: #ff0000; stroke: #ff0000"/>
     <use xlink:href="#m96891d4484" x="119.66631" y="274.152576" style="fill: #ff0000; stroke: #ff0000"/>
     <use xlink:href="#m96891d4484" x="120.939465" y="273.559926" style="fill: #ff0000; stroke: #ff0000"/>
     <use xlink:href="#m96891d4484" x="122.21262" y="272.967275" style="fill: #ff0000; stroke: #ff0000"/>
     <use xlink:href="#m96891d4484" x="123.485775" y="272.374624" style="fill: #ff0000; stroke: #ff0000"/>
     <use xlink:href="#m96891d4484" x="124.75893" y="271.781974" style="fill: #ff0000; stroke: #ff0000"/>
     <use xlink:href="#m96891d4484" x="126.032086" y="271.189323" style="fill: #ff0000; stroke: #ff0000"/>
     <use xlink:href="#m96891d4484" x="127.305241" y="270.596672" style="fill: #ff0000; stroke: #ff0000"/>
     <use xlink:href="#m96891d4484" x="128.578396" y="270.004022" style="fill: #ff0000; stroke: #ff0000"/>
     <use xlink:href="#m96891d4484" x="129.851551" y="269.411371" style="fill: #ff0000; stroke: #ff0000"/>
     <use xlink:href="#m96891d4484" x="131.124706" y="268.81872" style="fill: #ff0000; stroke: #ff0000"/>
     <use xlink:href="#m96891d4484" x="132.397861" y="268.22607" style="fill: #ff0000; stroke: #ff0000"/>
     <use xlink:href="#m96891d4484" x="133.671016" y="267.633419" style="fill: #ff0000; stroke: #ff0000"/>
     <use xlink:href="#m96891d4484" x="134.944171" y="267.040768" style="fill: #ff0000; stroke: #ff0000"/>
     <use xlink:href="#m96891d4484" x="136.217326" y="266.448118" style="fill: #ff0000; stroke: #ff0000"/>
     <use xlink:href="#m96891d4484" x="137.490481" y="265.855467" style="fill: #ff0000; stroke: #ff0000"/>
     <use xlink:href="#m96891d4484" x="138.763636" y="265.262816" style="fill: #ff0000; stroke: #ff0000"/>
     <use xlink:href="#m96891d4484" x="140.036791" y="264.670166" style="fill: #ff0000; stroke: #ff0000"/>
     <use xlink:href="#m96891d4484" x="141.309947" y="264.077515" style="fill: #ff0000; stroke: #ff0000"/>
     <use xlink:href="#m96891d4484" x="142.583102" y="263.484864" style="fill: #ff0000; stroke: #ff0000"/>
     <use xlink:href="#m96891d4484" x="143.856257" y="262.892214" style="fill: #ff0000; stroke: #ff0000"/>
     <use xlink:href="#m96891d4484" x="145.129412" y="262.299563" style="fill: #ff0000; stroke: #ff0000"/>
     <use xlink:href="#m96891d4484" x="146.402567" y="261.706912" style="fill: #ff0000; stroke: #ff0000"/>
     <use xlink:href="#m96891d4484" x="147.675722" y="261.114262" style="fill: #ff0000; stroke: #ff0000"/>
     <use xlink:href="#m96891d4484" x="148.948877" y="260.521611" style="fill: #ff0000; stroke: #ff0000"/>
     <use xlink:href="#m96891d4484" x="150.222032" y="259.92896" style="fill: #ff0000; stroke: #ff0000"/>
     <use xlink:href="#m96891d4484" x="151.495187" y="259.33631" style="fill: #ff0000; stroke: #ff0000"/>
     <use xlink:href="#m96891d4484" x="152.768342" y="258.743659" style="fill: #ff0000; stroke: #ff0000"/>
     <use xlink:href="#m96891d4484" x="154.041497" y="258.151008" style="fill: #ff0000; stroke: #ff0000"/>
     <use xlink:href="#m96891d4484" x="155.314652" y="257.558358" style="fill: #ff0000; stroke: #ff0000"/>
     <use xlink:href="#m96891d4484" x="156.587807" y="256.965707" style="fill: #ff0000; stroke: #ff0000"/>
     <use xlink:href="#m96891d4484" x="157.860963" y="256.373056" style="fill: #ff0000; stroke: #ff0000"/>
     <use xlink:href="#m96891d4484" x="159.134118" y="255.780406" style="fill: #ff0000; stroke: #ff0000"/>
     <use xlink:href="#m96891d4484" x="160.407273" y="255.187755" style="fill: #ff0000; stroke: #ff0000"/>
     <use xlink:href="#m96891d4484" x="161.680428" y="254.595104" style="fill: #ff0000; stroke: #ff0000"/>
     <use xlink:href="#m96891d4484" x="162.953583" y="254.002454" style="fill: #ff0000; stroke: #ff0000"/>
     <use xlink:href="#m96891d4484" x="164.226738" y="253.409803" style="fill: #ff0000; stroke: #ff0000"/>
     <use xlink:href="#m96891d4484" x="165.499893" y="252.817152" style="fill: #ff0000; stroke: #ff0000"/>
     <use xlink:href="#m96891d4484" x="166.773048" y="252.224502" style="fill: #ff0000; stroke: #ff0000"/>
     <use xlink:href="#m96891d4484" x="168.046203" y="251.631851" style="fill: #ff0000; stroke: #ff0000"/>
     <use xlink:href="#m96891d4484" x="169.319358" y="251.0392" style="fill: #ff0000; stroke: #ff0000"/>
     <use xlink:href="#m96891d4484" x="170.592513" y="250.44655" style="fill: #ff0000; stroke: #ff0000"/>
     <use xlink:href="#m96891d4484" x="171.865668" y="249.853899" style="fill: #ff0000; stroke: #ff0000"/>
     <use xlink:href="#m96891d4484" x="173.138824" y="249.261248" style="fill: #ff0000; stroke: #ff0000"/>
     <use xlink:href="#m96891d4484" x="174.411979" y="248.668598" style="fill: #ff0000; stroke: #ff0000"/>
     <use xlink:href="#m96891d4484" x="175.685134" y="248.075947" style="fill: #ff0000; stroke: #ff0000"/>
     <use xlink:href="#m96891d4484" x="176.958289" y="247.483296" style="fill: #ff0000; stroke: #ff0000"/>
     <use xlink:href="#m96891d4484" x="178.231444" y="246.890646" style="fill: #ff0000; stroke: #ff0000"/>
     <use xlink:href="#m96891d4484" x="179.504599" y="246.297995" style="fill: #ff0000; stroke: #ff0000"/>
     <use xlink:href="#m96891d4484" x="180.777754" y="245.705344" style="fill: #ff0000; stroke: #ff0000"/>
     <use xlink:href="#m96891d4484" x="182.050909" y="245.112694" style="fill: #ff0000; stroke: #ff0000"/>
     <use xlink:href="#m96891d4484" x="183.324064" y="244.520043" style="fill: #ff0000; stroke: #ff0000"/>
     <use xlink:href="#m96891d4484" x="184.597219" y="243.927392" style="fill: #ff0000; stroke: #ff0000"/>
     <use xlink:href="#m96891d4484" x="185.870374" y="243.334742" style="fill: #ff0000; stroke: #ff0000"/>
     <use xlink:href="#m96891d4484" x="187.143529" y="242.742091" style="fill: #ff0000; stroke: #ff0000"/>
     <use xlink:href="#m96891d4484" x="188.416684" y="242.14944" style="fill: #ff0000; stroke: #ff0000"/>
     <use xlink:href="#m96891d4484" x="189.68984" y="241.55679" style="fill: #ff0000; stroke: #ff0000"/>
     <use xlink:href="#m96891d4484" x="190.962995" y="240.964139" style="fill: #ff0000; stroke: #ff0000"/>
     <use xlink:href="#m96891d4484" x="192.23615" y="240.371488" style="fill: #ff0000; stroke: #ff0000"/>
     <use xlink:href="#m96891d4484" x="193.509305" y="239.778838" style="fill: #ff0000; stroke: #ff0000"/>
     <use xlink:href="#m96891d4484" x="194.78246" y="239.186187" style="fill: #ff0000; stroke: #ff0000"/>
     <use xlink:href="#m96891d4484" x="196.055615" y="238.593537" style="fill: #ff0000; stroke: #ff0000"/>
     <use xlink:href="#m96891d4484" x="197.32877" y="238.000886" style="fill: #ff0000; stroke: #ff0000"/>
     <use xlink:href="#m96891d4484" x="198.601925" y="237.408235" style="fill: #ff0000; stroke: #ff0000"/>
     <use xlink:href="#m96891d4484" x="199.87508" y="236.815585" style="fill: #ff0000; stroke: #ff0000"/>
     <use xlink:href="#m96891d4484" x="201.148235" y="236.222934" style="fill: #ff0000; stroke: #ff0000"/>
     <use xlink:href="#m96891d4484" x="202.42139" y="235.630283" style="fill: #ff0000; stroke: #ff0000"/>
     <use xlink:href="#m96891d4484" x="203.694545" y="235.037633" style="fill: #ff0000; stroke: #ff0000"/>
     <use xlink:href="#m96891d4484" x="204.967701" y="234.444982" style="fill: #ff0000; stroke: #ff0000"/>
     <use xlink:href="#m96891d4484" x="206.240856" y="233.852331" style="fill: #ff0000; stroke: #ff0000"/>
     <use xlink:href="#m96891d4484" x="207.514011" y="233.259681" style="fill: #ff0000; stroke: #ff0000"/>
     <use xlink:href="#m96891d4484" x="208.787166" y="232.66703" style="fill: #ff0000; stroke: #ff0000"/>
     <use xlink:href="#m96891d4484" x="210.060321" y="232.074379" style="fill: #ff0000; stroke: #ff0000"/>
     <use xlink:href="#m96891d4484" x="211.333476" y="231.481729" style="fill: #ff0000; stroke: #ff0000"/>
     <use xlink:href="#m96891d4484" x="212.606631" y="230.889078" style="fill: #ff0000; stroke: #ff0000"/>
     <use xlink:href="#m96891d4484" x="213.879786" y="230.296427" style="fill: #ff0000; stroke: #ff0000"/>
     <use xlink:href="#m96891d4484" x="215.152941" y="229.703777" style="fill: #ff0000; stroke: #ff0000"/>
     <use xlink:href="#m96891d4484" x="216.426096" y="229.111126" style="fill: #ff0000; stroke: #ff0000"/>
     <use xlink:href="#m96891d4484" x="217.699251" y="228.518475" style="fill: #ff0000; stroke: #ff0000"/>
     <use xlink:href="#m96891d4484" x="218.972406" y="227.925825" style="fill: #ff0000; stroke: #ff0000"/>
     <use xlink:href="#m96891d4484" x="220.245561" y="227.333174" style="fill: #ff0000; stroke: #ff0000"/>
     <use xlink:href="#m96891d4484" x="221.518717" y="226.740523" style="fill: #ff0000; stroke: #ff0000"/>
     <use xlink:href="#m96891d4484" x="222.791872" y="226.147873" style="fill: #ff0000; stroke: #ff0000"/>
     <use xlink:href="#m96891d4484" x="224.065027" y="225.555222" style="fill: #ff0000; stroke: #ff0000"/>
     <use xlink:href="#m96891d4484" x="225.338182" y="224.962571" style="fill: #ff0000; stroke: #ff0000"/>
     <use xlink:href="#m96891d4484" x="226.611337" y="224.369921" style="fill: #ff0000; stroke: #ff0000"/>
     <use xlink:href="#m96891d4484" x="227.884492" y="223.77727" style="fill: #ff0000; stroke: #ff0000"/>
     <use xlink:href="#m96891d4484" x="229.157647" y="223.184619" style="fill: #ff0000; stroke: #ff0000"/>
     <use xlink:href="#m96891d4484" x="230.430802" y="222.591969" style="fill: #ff0000; stroke: #ff0000"/>
     <use xlink:href="#m96891d4484" x="231.703957" y="221.999318" style="fill: #ff0000; stroke: #ff0000"/>
     <use xlink:href="#m96891d4484" x="232.977112" y="221.406667" style="fill: #ff0000; stroke: #ff0000"/>
     <use xlink:href="#m96891d4484" x="234.250267" y="220.814017" style="fill: #ff0000; stroke: #ff0000"/>
     <use xlink:href="#m96891d4484" x="235.523422" y="220.221366" style="fill: #ff0000; stroke: #ff0000"/>
     <use xlink:href="#m96891d4484" x="236.796578" y="219.628715" style="fill: #ff0000; stroke: #ff0000"/>
     <use xlink:href="#m96891d4484" x="238.069733" y="219.036065" style="fill: #ff0000; stroke: #ff0000"/>
     <use xlink:href="#m96891d4484" x="239.342888" y="218.443414" style="fill: #ff0000; stroke: #ff0000"/>
     <use xlink:href="#m96891d4484" x="240.616043" y="217.850763" style="fill: #ff0000; stroke: #ff0000"/>
     <use xlink:href="#m96891d4484" x="241.889198" y="217.258113" style="fill: #ff0000; stroke: #ff0000"/>
     <use xlink:href="#m96891d4484" x="243.162353" y="216.665462" style="fill: #ff0000; stroke: #ff0000"/>
     <use xlink:href="#m96891d4484" x="244.435508" y="216.072811" style="fill: #ff0000; stroke: #ff0000"/>
     <use xlink:href="#m96891d4484" x="245.708663" y="215.480161" style="fill: #ff0000; stroke: #ff0000"/>
     <use xlink:href="#m96891d4484" x="246.981818" y="214.88751" style="fill: #ff0000; stroke: #ff0000"/>
     <use xlink:href="#m96891d4484" x="248.254973" y="214.294859" style="fill: #ff0000; stroke: #ff0000"/>
     <use xlink:href="#m96891d4484" x="249.528128" y="213.702209" style="fill: #ff0000; stroke: #ff0000"/>
     <use xlink:href="#m96891d4484" x="250.801283" y="213.109558" style="fill: #ff0000; stroke: #ff0000"/>
     <use xlink:href="#m96891d4484" x="252.074439" y="212.516907" style="fill: #ff0000; stroke: #ff0000"/>
     <use xlink:href="#m96891d4484" x="253.347594" y="211.924257" style="fill: #ff0000; stroke: #ff0000"/>
     <use xlink:href="#m96891d4484" x="254.620749" y="211.331606" style="fill: #ff0000; stroke: #ff0000"/>
     <use xlink:href="#m96891d4484" x="255.893904" y="210.738955" style="fill: #ff0000; stroke: #ff0000"/>
     <use xlink:href="#m96891d4484" x="257.167059" y="210.146305" style="fill: #ff0000; stroke: #ff0000"/>
     <use xlink:href="#m96891d4484" x="258.440214" y="209.553654" style="fill: #ff0000; stroke: #ff0000"/>
     <use xlink:href="#m96891d4484" x="259.713369" y="208.961003" style="fill: #ff0000; stroke: #ff0000"/>
     <use xlink:href="#m96891d4484" x="260.986524" y="208.368353" style="fill: #ff0000; stroke: #ff0000"/>
     <use xlink:href="#m96891d4484" x="262.259679" y="207.775702" style="fill: #ff0000; stroke: #ff0000"/>
     <use xlink:href="#m96891d4484" x="263.532834" y="207.183051" style="fill: #ff0000; stroke: #ff0000"/>
     <use xlink:href="#m96891d4484" x="264.805989" y="206.590401" style="fill: #ff0000; stroke: #ff0000"/>
     <use xlink:href="#m96891d4484" x="266.079144" y="205.99775" style="fill: #ff0000; stroke: #ff0000"/>
     <use xlink:href="#m96891d4484" x="267.352299" y="205.405099" style="fill: #ff0000; stroke: #ff0000"/>
     <use xlink:href="#m96891d4484" x="268.625455" y="204.812449" style="fill: #ff0000; stroke: #ff0000"/>
     <use xlink:href="#m96891d4484" x="269.89861" y="204.219798" style="fill: #ff0000; stroke: #ff0000"/>
     <use xlink:href="#m96891d4484" x="271.171765" y="203.627147" style="fill: #ff0000; stroke: #ff0000"/>
     <use xlink:href="#m96891d4484" x="272.44492" y="203.034497" style="fill: #ff0000; stroke: #ff0000"/>
     <use xlink:href="#m96891d4484" x="273.718075" y="202.441846" style="fill: #ff0000; stroke: #ff0000"/>
     <use xlink:href="#m96891d4484" x="274.99123" y="201.849195" style="fill: #ff0000; stroke: #ff0000"/>
     <use xlink:href="#m96891d4484" x="276.264385" y="201.256545" style="fill: #ff0000; stroke: #ff0000"/>
     <use xlink:href="#m96891d4484" x="277.53754" y="200.663894" style="fill: #ff0000; stroke: #ff0000"/>
     <use xlink:href="#m96891d4484" x="278.810695" y="200.071244" style="fill: #ff0000; stroke: #ff0000"/>
     <use xlink:href="#m96891d4484" x="280.08385" y="199.478593" style="fill: #ff0000; stroke: #ff0000"/>
     <use xlink:href="#m96891d4484" x="281.357005" y="198.885942" style="fill: #ff0000; stroke: #ff0000"/>
     <use xlink:href="#m96891d4484" x="282.63016" y="198.293292" style="fill: #ff0000; stroke: #ff0000"/>
     <use xlink:href="#m96891d4484" x="283.903316" y="197.700641" style="fill: #ff0000; stroke: #ff0000"/>
     <use xlink:href="#m96891d4484" x="285.176471" y="197.10799" style="fill: #ff0000; stroke: #ff0000"/>
     <use xlink:href="#m96891d4484" x="286.449626" y="196.51534" style="fill: #ff0000; stroke: #ff0000"/>
     <use xlink:href="#m96891d4484" x="287.722781" y="195.922689" style="fill: #ff0000; stroke: #ff0000"/>
     <use xlink:href="#m96891d4484" x="288.995936" y="195.330038" style="fill: #ff0000; stroke: #ff0000"/>
     <use xlink:href="#m96891d4484" x="290.269091" y="194.737388" style="fill: #ff0000; stroke: #ff0000"/>
     <use xlink:href="#m96891d4484" x="291.542246" y="194.144737" style="fill: #ff0000; stroke: #ff0000"/>
     <use xlink:href="#m96891d4484" x="292.815401" y="193.552086" style="fill: #ff0000; stroke: #ff0000"/>
     <use xlink:href="#m96891d4484" x="294.088556" y="192.959436" style="fill: #ff0000; stroke: #ff0000"/>
     <use xlink:href="#m96891d4484" x="295.361711" y="192.366785" style="fill: #ff0000; stroke: #ff0000"/>
     <use xlink:href="#m96891d4484" x="296.634866" y="191.774134" style="fill: #ff0000; stroke: #ff0000"/>
     <use xlink:href="#m96891d4484" x="297.908021" y="191.181484" style="fill: #ff0000; stroke: #ff0000"/>
     <use xlink:href="#m96891d4484" x="299.181176" y="190.588833" style="fill: #ff0000; stroke: #ff0000"/>
     <use xlink:href="#m96891d4484" x="300.454332" y="189.996182" style="fill: #ff0000; stroke: #ff0000"/>
     <use xlink:href="#m96891d4484" x="301.727487" y="189.403532" style="fill: #ff0000; stroke: #ff0000"/>
     <use xlink:href="#m96891d4484" x="303.000642" y="188.810881" style="fill: #ff0000; stroke: #ff0000"/>
     <use xlink:href="#m96891d4484" x="304.273797" y="188.21823" style="fill: #ff0000; stroke: #ff0000"/>
     <use xlink:href="#m96891d4484" x="305.546952" y="187.62558" style="fill: #ff0000; stroke: #ff0000"/>
     <use xlink:href="#m96891d4484" x="306.820107" y="187.032929" style="fill: #ff0000; stroke: #ff0000"/>
     <use xlink:href="#m96891d4484" x="308.093262" y="186.440278" style="fill: #ff0000; stroke: #ff0000"/>
     <use xlink:href="#m96891d4484" x="309.366417" y="185.847628" style="fill: #ff0000; stroke: #ff0000"/>
     <use xlink:href="#m96891d4484" x="310.639572" y="185.254977" style="fill: #ff0000; stroke: #ff0000"/>
     <use xlink:href="#m96891d4484" x="311.912727" y="184.662326" style="fill: #ff0000; stroke: #ff0000"/>
     <use xlink:href="#m96891d4484" x="313.185882" y="184.069676" style="fill: #ff0000; stroke: #ff0000"/>
     <use xlink:href="#m96891d4484" x="314.459037" y="183.477025" style="fill: #ff0000; stroke: #ff0000"/>
     <use xlink:href="#m96891d4484" x="315.732193" y="182.884374" style="fill: #ff0000; stroke: #ff0000"/>
     <use xlink:href="#m96891d4484" x="317.005348" y="182.291724" style="fill: #ff0000; stroke: #ff0000"/>
     <use xlink:href="#m96891d4484" x="318.278503" y="181.699073" style="fill: #ff0000; stroke: #ff0000"/>
     <use xlink:href="#m96891d4484" x="319.551658" y="181.106422" style="fill: #ff0000; stroke: #ff0000"/>
     <use xlink:href="#m96891d4484" x="320.824813" y="180.513772" style="fill: #ff0000; stroke: #ff0000"/>
     <use xlink:href="#m96891d4484" x="322.097968" y="179.921121" style="fill: #ff0000; stroke: #ff0000"/>
     <use xlink:href="#m96891d4484" x="323.371123" y="179.32847" style="fill: #ff0000; stroke: #ff0000"/>
     <use xlink:href="#m96891d4484" x="324.644278" y="178.73582" style="fill: #ff0000; stroke: #ff0000"/>
     <use xlink:href="#m96891d4484" x="325.917433" y="178.143169" style="fill: #ff0000; stroke: #ff0000"/>
     <use xlink:href="#m96891d4484" x="327.190588" y="177.550518" style="fill: #ff0000; stroke: #ff0000"/>
     <use xlink:href="#m96891d4484" x="328.463743" y="176.957868" style="fill: #ff0000; stroke: #ff0000"/>
     <use xlink:href="#m96891d4484" x="329.736898" y="176.365217" style="fill: #ff0000; stroke: #ff0000"/>
     <use xlink:href="#m96891d4484" x="331.010053" y="175.772566" style="fill: #ff0000; stroke: #ff0000"/>
     <use xlink:href="#m96891d4484" x="332.283209" y="175.179916" style="fill: #ff0000; stroke: #ff0000"/>
     <use xlink:href="#m96891d4484" x="333.556364" y="174.587265" style="fill: #ff0000; stroke: #ff0000"/>
     <use xlink:href="#m96891d4484" x="334.829519" y="173.994614" style="fill: #ff0000; stroke: #ff0000"/>
     <use xlink:href="#m96891d4484" x="336.102674" y="173.401964" style="fill: #ff0000; stroke: #ff0000"/>
     <use xlink:href="#m96891d4484" x="337.375829" y="172.809313" style="fill: #ff0000; stroke: #ff0000"/>
     <use xlink:href="#m96891d4484" x="338.648984" y="172.216662" style="fill: #ff0000; stroke: #ff0000"/>
     <use xlink:href="#m96891d4484" x="339.922139" y="171.624012" style="fill: #ff0000; stroke: #ff0000"/>
     <use xlink:href="#m96891d4484" x="341.195294" y="171.031361" style="fill: #ff0000; stroke: #ff0000"/>
     <use xlink:href="#m96891d4484" x="342.468449" y="170.43871" style="fill: #ff0000; stroke: #ff0000"/>
     <use xlink:href="#m96891d4484" x="343.741604" y="169.84606" style="fill: #ff0000; stroke: #ff0000"/>
     <use xlink:href="#m96891d4484" x="345.014759" y="169.253409" style="fill: #ff0000; stroke: #ff0000"/>
     <use xlink:href="#m96891d4484" x="346.287914" y="168.660758" style="fill: #ff0000; stroke: #ff0000"/>
     <use xlink:href="#m96891d4484" x="347.56107" y="168.068108" style="fill: #ff0000; stroke: #ff0000"/>
     <use xlink:href="#m96891d4484" x="348.834225" y="167.475457" style="fill: #ff0000; stroke: #ff0000"/>
     <use xlink:href="#m96891d4484" x="350.10738" y="166.882806" style="fill: #ff0000; stroke: #ff0000"/>
     <use xlink:href="#m96891d4484" x="351.380535" y="166.290156" style="fill: #ff0000; stroke: #ff0000"/>
     <use xlink:href="#m96891d4484" x="352.65369" y="165.697505" style="fill: #ff0000; stroke: #ff0000"/>
     <use xlink:href="#m96891d4484" x="353.926845" y="165.104854" style="fill: #ff0000; stroke: #ff0000"/>
     <use xlink:href="#m96891d4484" x="355.2" y="164.512204" style="fill: #ff0000; stroke: #ff0000"/>
     <use xlink:href="#m96891d4484" x="356.473155" y="163.919553" style="fill: #ff0000; stroke: #ff0000"/>
     <use xlink:href="#m96891d4484" x="357.74631" y="163.326902" style="fill: #ff0000; stroke: #ff0000"/>
     <use xlink:href="#m96891d4484" x="359.019465" y="162.734252" style="fill: #ff0000; stroke: #ff0000"/>
     <use xlink:href="#m96891d4484" x="360.29262" y="162.141601" style="fill: #ff0000; stroke: #ff0000"/>
     <use xlink:href="#m96891d4484" x="361.565775" y="161.548951" style="fill: #ff0000; stroke: #ff0000"/>
     <use xlink:href="#m96891d4484" x="362.83893" y="160.9563" style="fill: #ff0000; stroke: #ff0000"/>
     <use xlink:href="#m96891d4484" x="364.112086" y="160.363649" style="fill: #ff0000; stroke: #ff0000"/>
     <use xlink:href="#m96891d4484" x="365.385241" y="159.770999" style="fill: #ff0000; stroke: #ff0000"/>
     <use xlink:href="#m96891d4484" x="366.658396" y="159.178348" style="fill: #ff0000; stroke: #ff0000"/>
     <use xlink:href="#m96891d4484" x="367.931551" y="158.585697" style="fill: #ff0000; stroke: #ff0000"/>
     <use xlink:href="#m96891d4484" x="369.204706" y="157.993047" style="fill: #ff0000; stroke: #ff0000"/>
     <use xlink:href="#m96891d4484" x="370.477861" y="157.400396" style="fill: #ff0000; stroke: #ff0000"/>
     <use xlink:href="#m96891d4484" x="371.751016" y="156.807745" style="fill: #ff0000; stroke: #ff0000"/>
     <use xlink:href="#m96891d4484" x="373.024171" y="156.215095" style="fill: #ff0000; stroke: #ff0000"/>
     <use xlink:href="#m96891d4484" x="374.297326" y="155.622444" style="fill: #ff0000; stroke: #ff0000"/>
     <use xlink:href="#m96891d4484" x="375.570481" y="155.029793" style="fill: #ff0000; stroke: #ff0000"/>
     <use xlink:href="#m96891d4484" x="376.843636" y="154.437143" style="fill: #ff0000; stroke: #ff0000"/>
     <use xlink:href="#m96891d4484" x="378.116791" y="153.844492" style="fill: #ff0000; stroke: #ff0000"/>
     <use xlink:href="#m96891d4484" x="379.389947" y="153.251841" style="fill: #ff0000; stroke: #ff0000"/>
     <use xlink:href="#m96891d4484" x="380.663102" y="152.659191" style="fill: #ff0000; stroke: #ff0000"/>
     <use xlink:href="#m96891d4484" x="381.936257" y="152.06654" style="fill: #ff0000; stroke: #ff0000"/>
     <use xlink:href="#m96891d4484" x="383.209412" y="151.473889" style="fill: #ff0000; stroke: #ff0000"/>
     <use xlink:href="#m96891d4484" x="384.482567" y="150.881239" style="fill: #ff0000; stroke: #ff0000"/>
     <use xlink:href="#m96891d4484" x="385.755722" y="150.288588" style="fill: #ff0000; stroke: #ff0000"/>
     <use xlink:href="#m96891d4484" x="387.028877" y="149.695937" style="fill: #ff0000; stroke: #ff0000"/>
     <use xlink:href="#m96891d4484" x="388.302032" y="149.103287" style="fill: #ff0000; stroke: #ff0000"/>
     <use xlink:href="#m96891d4484" x="389.575187" y="148.510636" style="fill: #ff0000; stroke: #ff0000"/>
     <use xlink:href="#m96891d4484" x="390.848342" y="147.917985" style="fill: #ff0000; stroke: #ff0000"/>
     <use xlink:href="#m96891d4484" x="392.121497" y="147.325335" style="fill: #ff0000; stroke: #ff0000"/>
     <use xlink:href="#m96891d4484" x="393.394652" y="146.732684" style="fill: #ff0000; stroke: #ff0000"/>
     <use xlink:href="#m96891d4484" x="394.667807" y="146.140033" style="fill: #ff0000; stroke: #ff0000"/>
     <use xlink:href="#m96891d4484" x="395.940963" y="145.547383" style="fill: #ff0000; stroke: #ff0000"/>
     <use xlink:href="#m96891d4484" x="397.214118" y="144.954732" style="fill: #ff0000; stroke: #ff0000"/>
     <use xlink:href="#m96891d4484" x="398.487273" y="144.362081" style="fill: #ff0000; stroke: #ff0000"/>
    </g>
   </g>
   <g id="patch_3">
    <path d="M 57.6 307.584 
L 57.6 41.472 
" style="fill: none; stroke: #000000; stroke-width: 0.8; stroke-linejoin: miter; stroke-linecap: square"/>
   </g>
   <g id="patch_4">
    <path d="M 414.72 307.584 
L 414.72 41.472 
" style="fill: none; stroke: #000000; stroke-width: 0.8; stroke-linejoin: miter; stroke-linecap: square"/>
   </g>
   <g id="patch_5">
    <path d="M 57.6 307.584 
L 414.72 307.584 
" style="fill: none; stroke: #000000; stroke-width: 0.8; stroke-linejoin: miter; stroke-linecap: square"/>
   </g>
   <g id="patch_6">
    <path d="M 57.6 41.472 
L 414.72 41.472 
" style="fill: none; stroke: #000000; stroke-width: 0.8; stroke-linejoin: miter; stroke-linecap: square"/>
   </g>
   <g id="text_15">
    <!-- 5 1-step -->
    <g transform="translate(211.474687 35.472) scale(0.12 -0.12)">
     <defs>
      <path id="DejaVuSans-20" transform="scale(0.015625)"/>
      <path id="DejaVuSans-2d" d="M 313 2009 
L 1997 2009 
L 1997 1497 
L 313 1497 
L 313 2009 
z
" transform="scale(0.015625)"/>
      <path id="DejaVuSans-73" d="M 2834 3397 
L 2834 2853 
Q 2591 2978 2328 3040 
Q 2066 3103 1784 3103 
Q 1356 3103 1142 2972 
Q 928 2841 928 2578 
Q 928 2378 1081 2264 
Q 1234 2150 1697 2047 
L 1894 2003 
Q 2506 1872 2764 1633 
Q 3022 1394 3022 966 
Q 3022 478 2636 193 
Q 2250 -91 1575 -91 
Q 1294 -91 989 -36 
Q 684 19 347 128 
L 347 722 
Q 666 556 975 473 
Q 1284 391 1588 391 
Q 1994 391 2212 530 
Q 2431 669 2431 922 
Q 2431 1156 2273 1281 
Q 2116 1406 1581 1522 
L 1381 1569 
Q 847 1681 609 1914 
Q 372 2147 372 2553 
Q 372 3047 722 3315 
Q 1072 3584 1716 3584 
Q 2034 3584 2315 3537 
Q 2597 3491 2834 3397 
z
" transform="scale(0.015625)"/>
      <path id="DejaVuSans-74" d="M 1172 4494 
L 1172 3500 
L 2356 3500 
L 2356 3053 
L 1172 3053 
L 1172 1153 
Q 1172 725 1289 603 
Q 1406 481 1766 481 
L 2356 481 
L 2356 0 
L 1766 0 
Q 1100 0 847 248 
Q 594 497 594 1153 
L 594 3053 
L 172 3053 
L 172 3500 
L 594 3500 
L 594 4494 
L 1172 4494 
z
" transform="scale(0.015625)"/>
      <path id="DejaVuSans-70" d="M 1159 525 
L 1159 -1331 
L 581 -1331 
L 581 3500 
L 1159 3500 
L 1159 2969 
Q 1341 3281 1617 3432 
Q 1894 3584 2278 3584 
Q 2916 3584 3314 3078 
Q 3713 2572 3713 1747 
Q 3713 922 3314 415 
Q 2916 -91 2278 -91 
Q 1894 -91 1617 61 
Q 1341 213 1159 525 
z
M 3116 1747 
Q 3116 2381 2855 2742 
Q 2594 3103 2138 3103 
Q 1681 3103 1420 2742 
Q 1159 2381 1159 1747 
Q 1159 1113 1420 752 
Q 1681 391 2138 391 
Q 2594 391 2855 752 
Q 3116 1113 3116 1747 
z
" transform="scale(0.015625)"/>
     </defs>
     <use xlink:href="#DejaVuSans-35"/>
     <use xlink:href="#DejaVuSans-20" transform="translate(63.623047 0)"/>
     <use xlink:href="#DejaVuSans-31" transform="translate(95.410156 0)"/>
     <use xlink:href="#DejaVuSans-2d" transform="translate(159.033203 0)"/>
     <use xlink:href="#DejaVuSans-73" transform="translate(195.117188 0)"/>
     <use xlink:href="#DejaVuSans-74" transform="translate(247.216797 0)"/>
     <use xlink:href="#DejaVuSans-65" transform="translate(286.425781 0)"/>
     <use xlink:href="#DejaVuSans-70" transform="translate(347.949219 0)"/>
    </g>
   </g>
   <g id="legend_1">
    <g id="patch_7">
     <path d="M 64.6 78.82825 
L 162.025 78.82825 
Q 164.025 78.82825 164.025 76.82825 
L 164.025 48.472 
Q 164.025 46.472 162.025 46.472 
L 64.6 46.472 
Q 62.6 46.472 62.6 48.472 
L 62.6 76.82825 
Q 62.6 78.82825 64.6 78.82825 
z
" style="fill: #ffffff; opacity: 0.8; stroke: #cccccc; stroke-linejoin: miter"/>
    </g>
    <g id="line2d_14">
     <path d="M 66.6 54.570437 
L 76.6 54.570437 
L 86.6 54.570437 
" style="fill: none; stroke: #0000ff; stroke-linecap: square"/>
    </g>
    <g id="text_16">
     <!-- Loop Line -->
     <g transform="translate(94.6 58.070437) scale(0.1 -0.1)">
      <defs>
       <path id="DejaVuSans-4c" d="M 628 4666 
L 1259 4666 
L 1259 531 
L 3531 531 
L 3531 0 
L 628 0 
L 628 4666 
z
" transform="scale(0.015625)"/>
       <path id="DejaVuSans-6f" d="M 1959 3097 
Q 1497 3097 1228 2736 
Q 959 2375 959 1747 
Q 959 1119 1226 758 
Q 1494 397 1959 397 
Q 2419 397 2687 759 
Q 2956 1122 2956 1747 
Q 2956 2369 2687 2733 
Q 2419 3097 1959 3097 
z
M 1959 3584 
Q 2709 3584 3137 3096 
Q 3566 2609 3566 1747 
Q 3566 888 3137 398 
Q 2709 -91 1959 -91 
Q 1206 -91 779 398 
Q 353 888 353 1747 
Q 353 2609 779 3096 
Q 1206 3584 1959 3584 
z
" transform="scale(0.015625)"/>
       <path id="DejaVuSans-69" d="M 603 3500 
L 1178 3500 
L 1178 0 
L 603 0 
L 603 3500 
z
M 603 4863 
L 1178 4863 
L 1178 4134 
L 603 4134 
L 603 4863 
z
" transform="scale(0.015625)"/>
      </defs>
      <use xlink:href="#DejaVuSans-4c"/>
      <use xlink:href="#DejaVuSans-6f" transform="translate(53.962891 0)"/>
      <use xlink:href="#DejaVuSans-6f" transform="translate(115.144531 0)"/>
      <use xlink:href="#DejaVuSans-70" transform="translate(176.326172 0)"/>
      <use xlink:href="#DejaVuSans-20" transform="translate(239.802734 0)"/>
      <use xlink:href="#DejaVuSans-4c" transform="translate(271.589844 0)"/>
      <use xlink:href="#DejaVuSans-69" transform="translate(327.302734 0)"/>
      <use xlink:href="#DejaVuSans-6e" transform="translate(355.085938 0)"/>
      <use xlink:href="#DejaVuSans-65" transform="translate(418.464844 0)"/>
     </g>
    </g>
    <g id="PathCollection_2">
     <g>
      <use xlink:href="#m96891d4484" x="76.6" y="70.123562" style="fill: #ff0000; stroke: #ff0000"/>
     </g>
    </g>
    <g id="text_17">
     <!-- 5 1-step 2^3 -->
     <g transform="translate(94.6 72.748562) scale(0.1 -0.1)">
      <use xlink:href="#DejaVuSans-35"/>
      <use xlink:href="#DejaVuSans-20" transform="translate(63.623047 0)"/>
      <use xlink:href="#DejaVuSans-31" transform="translate(95.410156 0)"/>
      <use xlink:href="#DejaVuSans-2d" transform="translate(159.033203 0)"/>
      <use xlink:href="#DejaVuSans-73" transform="translate(195.117188 0)"/>
      <use xlink:href="#DejaVuSans-74" transform="translate(247.216797 0)"/>
      <use xlink:href="#DejaVuSans-65" transform="translate(286.425781 0)"/>
      <use xlink:href="#DejaVuSans-70" transform="translate(347.949219 0)"/>
      <use xlink:href="#DejaVuSans-20" transform="translate(411.425781 0)"/>
      <use xlink:href="#DejaVuSans-32" transform="translate(443.212891 0)"/>
      <use xlink:href="#DejaVuSans-5e" transform="translate(506.835938 0)"/>
      <use xlink:href="#DejaVuSans-33" transform="translate(590.625 0)"/>
     </g>
    </g>
   </g>
  </g>
 </g>
 <defs>
  <clipPath id="pe867654dc4">
   <rect x="57.6" y="41.472" width="357.12" height="266.112"/>
  </clipPath>
 </defs>
</svg>
