<?xml version="1.0" encoding="utf-8" standalone="no"?>
<!DOCTYPE svg PUBLIC "-//W3C//DTD SVG 1.1//EN"
  "http://www.w3.org/Graphics/SVG/1.1/DTD/svg11.dtd">
<svg xmlns:xlink="http://www.w3.org/1999/xlink" width="460.8pt" height="345.6pt" viewBox="0 0 460.8 345.6" xmlns="http://www.w3.org/2000/svg" version="1.1">
 <metadata>
  <rdf:RDF xmlns:dc="http://purl.org/dc/elements/1.1/" xmlns:cc="http://creativecommons.org/ns#" xmlns:rdf="http://www.w3.org/1999/02/22-rdf-syntax-ns#">
   <cc:Work>
    <dc:type rdf:resource="http://purl.org/dc/dcmitype/StillImage"/>
    <dc:date>2025-03-25T00:27:38.776962</dc:date>
    <dc:format>image/svg+xml</dc:format>
    <dc:creator>
     <cc:Agent>
      <dc:title>Matplotlib v3.10.1, https://matplotlib.org/</dc:title>
     </cc:Agent>
    </dc:creator>
   </cc:Work>
  </rdf:RDF>
 </metadata>
 <defs>
  <style type="text/css">*{stroke-linejoin: round; stroke-linecap: butt}</style>
 </defs>
 <g id="figure_1">
  <g id="patch_1">
   <path d="M 0 345.6 
L 460.8 345.6 
L 460.8 0 
L 0 0 
z
" style="fill: #ffffff"/>
  </g>
  <g id="axes_1">
   <g id="patch_2">
    <path d="M 57.6 307.584 
L 414.72 307.584 
L 414.72 41.472 
L 57.6 41.472 
z
" style="fill: #ffffff"/>
   </g>
   <g id="line2d_1">
    <path d="M 73.832727 295.488 
L 398.487273 53.568 
L 398.487273 53.568 
" clip-path="url(#p6dd1ba6b5a)" style="fill: none; stroke: #0000ff; stroke-linecap: square"/>
   </g>
   <g id="matplotlib.axis_1">
    <g id="xtick_1">
     <g id="line2d_2">
      <defs>
       <path id="m4c0cc4146e" d="M 0 0 
L 0 3.5 
" style="stroke: #000000; stroke-width: 0.8"/>
      </defs>
      <g>
       <use xlink:href="#m4c0cc4146e" x="73.19615" y="307.584" style="stroke: #000000; stroke-width: 0.8"/>
      </g>
     </g>
     <g id="text_1">
      <!-- 0 -->
      <g transform="translate(70.0149 322.182437) scale(0.1 -0.1)">
       <defs>
        <path id="DejaVuSans-30" d="M 2034 4250 
Q 1547 4250 1301 3770 
Q 1056 3291 1056 2328 
Q 1056 1369 1301 889 
Q 1547 409 2034 409 
Q 2525 409 2770 889 
Q 3016 1369 3016 2328 
Q 3016 3291 2770 3770 
Q 2525 4250 2034 4250 
z
M 2034 4750 
Q 2819 4750 3233 4129 
Q 3647 3509 3647 2328 
Q 3647 1150 3233 529 
Q 2819 -91 2034 -91 
Q 1250 -91 836 529 
Q 422 1150 422 2328 
Q 422 3509 836 4129 
Q 1250 4750 2034 4750 
z
" transform="scale(0.015625)"/>
       </defs>
       <use xlink:href="#DejaVuSans-30"/>
      </g>
     </g>
    </g>
    <g id="xtick_2">
     <g id="line2d_3">
      <g>
       <use xlink:href="#m4c0cc4146e" x="136.853904" y="307.584" style="stroke: #000000; stroke-width: 0.8"/>
      </g>
     </g>
     <g id="text_2">
      <!-- 100 -->
      <g transform="translate(127.310154 322.182437) scale(0.1 -0.1)">
       <defs>
        <path id="DejaVuSans-31" d="M 794 531 
L 1825 531 
L 1825 4091 
L 703 3866 
L 703 4441 
L 1819 4666 
L 2450 4666 
L 2450 531 
L 3481 531 
L 3481 0 
L 794 0 
L 794 531 
z
" transform="scale(0.015625)"/>
       </defs>
       <use xlink:href="#DejaVuSans-31"/>
       <use xlink:href="#DejaVuSans-30" transform="translate(63.623047 0)"/>
       <use xlink:href="#DejaVuSans-30" transform="translate(127.246094 0)"/>
      </g>
     </g>
    </g>
    <g id="xtick_3">
     <g id="line2d_4">
      <g>
       <use xlink:href="#m4c0cc4146e" x="200.511658" y="307.584" style="stroke: #000000; stroke-width: 0.8"/>
      </g>
     </g>
     <g id="text_3">
      <!-- 200 -->
      <g transform="translate(190.967908 322.182437) scale(0.1 -0.1)">
       <defs>
        <path id="DejaVuSans-32" d="M 1228 531 
L 3431 531 
L 3431 0 
L 469 0 
L 469 531 
Q 828 903 1448 1529 
Q 2069 2156 2228 2338 
Q 2531 2678 2651 2914 
Q 2772 3150 2772 3378 
Q 2772 3750 2511 3984 
Q 2250 4219 1831 4219 
Q 1534 4219 1204 4116 
Q 875 4013 500 3803 
L 500 4441 
Q 881 4594 1212 4672 
Q 1544 4750 1819 4750 
Q 2544 4750 2975 4387 
Q 3406 4025 3406 3419 
Q 3406 3131 3298 2873 
Q 3191 2616 2906 2266 
Q 2828 2175 2409 1742 
Q 1991 1309 1228 531 
z
" transform="scale(0.015625)"/>
       </defs>
       <use xlink:href="#DejaVuSans-32"/>
       <use xlink:href="#DejaVuSans-30" transform="translate(63.623047 0)"/>
       <use xlink:href="#DejaVuSans-30" transform="translate(127.246094 0)"/>
      </g>
     </g>
    </g>
    <g id="xtick_4">
     <g id="line2d_5">
      <g>
       <use xlink:href="#m4c0cc4146e" x="264.169412" y="307.584" style="stroke: #000000; stroke-width: 0.8"/>
      </g>
     </g>
     <g id="text_4">
      <!-- 300 -->
      <g transform="translate(254.625662 322.182437) scale(0.1 -0.1)">
       <defs>
        <path id="DejaVuSans-33" d="M 2597 2516 
Q 3050 2419 3304 2112 
Q 3559 1806 3559 1356 
Q 3559 666 3084 287 
Q 2609 -91 1734 -91 
Q 1441 -91 1130 -33 
Q 819 25 488 141 
L 488 750 
Q 750 597 1062 519 
Q 1375 441 1716 441 
Q 2309 441 2620 675 
Q 2931 909 2931 1356 
Q 2931 1769 2642 2001 
Q 2353 2234 1838 2234 
L 1294 2234 
L 1294 2753 
L 1863 2753 
Q 2328 2753 2575 2939 
Q 2822 3125 2822 3475 
Q 2822 3834 2567 4026 
Q 2313 4219 1838 4219 
Q 1578 4219 1281 4162 
Q 984 4106 628 3988 
L 628 4550 
Q 988 4650 1302 4700 
Q 1616 4750 1894 4750 
Q 2613 4750 3031 4423 
Q 3450 4097 3450 3541 
Q 3450 3153 3228 2886 
Q 3006 2619 2597 2516 
z
" transform="scale(0.015625)"/>
       </defs>
       <use xlink:href="#DejaVuSans-33"/>
       <use xlink:href="#DejaVuSans-30" transform="translate(63.623047 0)"/>
       <use xlink:href="#DejaVuSans-30" transform="translate(127.246094 0)"/>
      </g>
     </g>
    </g>
    <g id="xtick_5">
     <g id="line2d_6">
      <g>
       <use xlink:href="#m4c0cc4146e" x="327.827166" y="307.584" style="stroke: #000000; stroke-width: 0.8"/>
      </g>
     </g>
     <g id="text_5">
      <!-- 400 -->
      <g transform="translate(318.283416 322.182437) scale(0.1 -0.1)">
       <defs>
        <path id="DejaVuSans-34" d="M 2419 4116 
L 825 1625 
L 2419 1625 
L 2419 4116 
z
M 2253 4666 
L 3047 4666 
L 3047 1625 
L 3713 1625 
L 3713 1100 
L 3047 1100 
L 3047 0 
L 2419 0 
L 2419 1100 
L 313 1100 
L 313 1709 
L 2253 4666 
z
" transform="scale(0.015625)"/>
       </defs>
       <use xlink:href="#DejaVuSans-34"/>
       <use xlink:href="#DejaVuSans-30" transform="translate(63.623047 0)"/>
       <use xlink:href="#DejaVuSans-30" transform="translate(127.246094 0)"/>
      </g>
     </g>
    </g>
    <g id="xtick_6">
     <g id="line2d_7">
      <g>
       <use xlink:href="#m4c0cc4146e" x="391.48492" y="307.584" style="stroke: #000000; stroke-width: 0.8"/>
      </g>
     </g>
     <g id="text_6">
      <!-- 500 -->
      <g transform="translate(381.94117 322.182437) scale(0.1 -0.1)">
       <defs>
        <path id="DejaVuSans-35" d="M 691 4666 
L 3169 4666 
L 3169 4134 
L 1269 4134 
L 1269 2991 
Q 1406 3038 1543 3061 
Q 1681 3084 1819 3084 
Q 2600 3084 3056 2656 
Q 3513 2228 3513 1497 
Q 3513 744 3044 326 
Q 2575 -91 1722 -91 
Q 1428 -91 1123 -41 
Q 819 9 494 109 
L 494 744 
Q 775 591 1075 516 
Q 1375 441 1709 441 
Q 2250 441 2565 725 
Q 2881 1009 2881 1497 
Q 2881 1984 2565 2268 
Q 2250 2553 1709 2553 
Q 1456 2553 1204 2497 
Q 953 2441 691 2322 
L 691 4666 
z
" transform="scale(0.015625)"/>
       </defs>
       <use xlink:href="#DejaVuSans-35"/>
       <use xlink:href="#DejaVuSans-30" transform="translate(63.623047 0)"/>
       <use xlink:href="#DejaVuSans-30" transform="translate(127.246094 0)"/>
      </g>
     </g>
    </g>
    <g id="text_7">
     <!-- n -->
     <g transform="translate(232.99125 335.860562) scale(0.1 -0.1)">
      <defs>
       <path id="DejaVuSans-6e" d="M 3513 2113 
L 3513 0 
L 2938 0 
L 2938 2094 
Q 2938 2591 2744 2837 
Q 2550 3084 2163 3084 
Q 1697 3084 1428 2787 
Q 1159 2491 1159 1978 
L 1159 0 
L 581 0 
L 581 3500 
L 1159 3500 
L 1159 2956 
Q 1366 3272 1645 3428 
Q 1925 3584 2291 3584 
Q 2894 3584 3203 3211 
Q 3513 2838 3513 2113 
z
" transform="scale(0.015625)"/>
      </defs>
      <use xlink:href="#DejaVuSans-6e"/>
     </g>
    </g>
   </g>
   <g id="matplotlib.axis_2">
    <g id="ytick_1">
     <g id="line2d_8">
      <defs>
       <path id="me55a8ec64d" d="M 0 0 
L -3.5 0 
" style="stroke: #000000; stroke-width: 0.8"/>
      </defs>
      <g>
       <use xlink:href="#me55a8ec64d" x="57.6" y="295.962353" style="stroke: #000000; stroke-width: 0.8"/>
      </g>
     </g>
     <g id="text_8">
      <!-- 0 -->
      <g transform="translate(44.2375 299.761572) scale(0.1 -0.1)">
       <use xlink:href="#DejaVuSans-30"/>
      </g>
     </g>
    </g>
    <g id="ytick_2">
     <g id="line2d_9">
      <g>
       <use xlink:href="#me55a8ec64d" x="57.6" y="248.527059" style="stroke: #000000; stroke-width: 0.8"/>
      </g>
     </g>
     <g id="text_9">
      <!-- 100 -->
      <g transform="translate(31.5125 252.326278) scale(0.1 -0.1)">
       <use xlink:href="#DejaVuSans-31"/>
       <use xlink:href="#DejaVuSans-30" transform="translate(63.623047 0)"/>
       <use xlink:href="#DejaVuSans-30" transform="translate(127.246094 0)"/>
      </g>
     </g>
    </g>
    <g id="ytick_3">
     <g id="line2d_10">
      <g>
       <use xlink:href="#me55a8ec64d" x="57.6" y="201.091765" style="stroke: #000000; stroke-width: 0.8"/>
      </g>
     </g>
     <g id="text_10">
      <!-- 200 -->
      <g transform="translate(31.5125 204.890983) scale(0.1 -0.1)">
       <use xlink:href="#DejaVuSans-32"/>
       <use xlink:href="#DejaVuSans-30" transform="translate(63.623047 0)"/>
       <use xlink:href="#DejaVuSans-30" transform="translate(127.246094 0)"/>
      </g>
     </g>
    </g>
    <g id="ytick_4">
     <g id="line2d_11">
      <g>
       <use xlink:href="#me55a8ec64d" x="57.6" y="153.656471" style="stroke: #000000; stroke-width: 0.8"/>
      </g>
     </g>
     <g id="text_11">
      <!-- 300 -->
      <g transform="translate(31.5125 157.455689) scale(0.1 -0.1)">
       <use xlink:href="#DejaVuSans-33"/>
       <use xlink:href="#DejaVuSans-30" transform="translate(63.623047 0)"/>
       <use xlink:href="#DejaVuSans-30" transform="translate(127.246094 0)"/>
      </g>
     </g>
    </g>
    <g id="ytick_5">
     <g id="line2d_12">
      <g>
       <use xlink:href="#me55a8ec64d" x="57.6" y="106.221176" style="stroke: #000000; stroke-width: 0.8"/>
      </g>
     </g>
     <g id="text_12">
      <!-- 400 -->
      <g transform="translate(31.5125 110.020395) scale(0.1 -0.1)">
       <use xlink:href="#DejaVuSans-34"/>
       <use xlink:href="#DejaVuSans-30" transform="translate(63.623047 0)"/>
       <use xlink:href="#DejaVuSans-30" transform="translate(127.246094 0)"/>
      </g>
     </g>
    </g>
    <g id="ytick_6">
     <g id="line2d_13">
      <g>
       <use xlink:href="#me55a8ec64d" x="57.6" y="58.785882" style="stroke: #000000; stroke-width: 0.8"/>
      </g>
     </g>
     <g id="text_13">
      <!-- 500 -->
      <g transform="translate(31.5125 62.585101) scale(0.1 -0.1)">
       <use xlink:href="#DejaVuSans-35"/>
       <use xlink:href="#DejaVuSans-30" transform="translate(63.623047 0)"/>
       <use xlink:href="#DejaVuSans-30" transform="translate(127.246094 0)"/>
      </g>
     </g>
    </g>
    <g id="text_14">
     <!-- (n*m+a)/2^e -->
     <g transform="translate(25.432812 208.354562) rotate(-90) scale(0.1 -0.1)">
      <defs>
       <path id="DejaVuSans-28" d="M 1984 4856 
Q 1566 4138 1362 3434 
Q 1159 2731 1159 2009 
Q 1159 1288 1364 580 
Q 1569 -128 1984 -844 
L 1484 -844 
Q 1016 -109 783 600 
Q 550 1309 550 2009 
Q 550 2706 781 3412 
Q 1013 4119 1484 4856 
L 1984 4856 
z
" transform="scale(0.015625)"/>
       <path id="DejaVuSans-2a" d="M 3009 3897 
L 1888 3291 
L 3009 2681 
L 2828 2375 
L 1778 3009 
L 1778 1831 
L 1422 1831 
L 1422 3009 
L 372 2375 
L 191 2681 
L 1313 3291 
L 191 3897 
L 372 4206 
L 1422 3572 
L 1422 4750 
L 1778 4750 
L 1778 3572 
L 2828 4206 
L 3009 3897 
z
" transform="scale(0.015625)"/>
       <path id="DejaVuSans-6d" d="M 3328 2828 
Q 3544 3216 3844 3400 
Q 4144 3584 4550 3584 
Q 5097 3584 5394 3201 
Q 5691 2819 5691 2113 
L 5691 0 
L 5113 0 
L 5113 2094 
Q 5113 2597 4934 2840 
Q 4756 3084 4391 3084 
Q 3944 3084 3684 2787 
Q 3425 2491 3425 1978 
L 3425 0 
L 2847 0 
L 2847 2094 
Q 2847 2600 2669 2842 
Q 2491 3084 2119 3084 
Q 1678 3084 1418 2786 
Q 1159 2488 1159 1978 
L 1159 0 
L 581 0 
L 581 3500 
L 1159 3500 
L 1159 2956 
Q 1356 3278 1631 3431 
Q 1906 3584 2284 3584 
Q 2666 3584 2933 3390 
Q 3200 3197 3328 2828 
z
" transform="scale(0.015625)"/>
       <path id="DejaVuSans-2b" d="M 2944 4013 
L 2944 2272 
L 4684 2272 
L 4684 1741 
L 2944 1741 
L 2944 0 
L 2419 0 
L 2419 1741 
L 678 1741 
L 678 2272 
L 2419 2272 
L 2419 4013 
L 2944 4013 
z
" transform="scale(0.015625)"/>
       <path id="DejaVuSans-61" d="M 2194 1759 
Q 1497 1759 1228 1600 
Q 959 1441 959 1056 
Q 959 750 1161 570 
Q 1363 391 1709 391 
Q 2188 391 2477 730 
Q 2766 1069 2766 1631 
L 2766 1759 
L 2194 1759 
z
M 3341 1997 
L 3341 0 
L 2766 0 
L 2766 531 
Q 2569 213 2275 61 
Q 1981 -91 1556 -91 
Q 1019 -91 701 211 
Q 384 513 384 1019 
Q 384 1609 779 1909 
Q 1175 2209 1959 2209 
L 2766 2209 
L 2766 2266 
Q 2766 2663 2505 2880 
Q 2244 3097 1772 3097 
Q 1472 3097 1187 3025 
Q 903 2953 641 2809 
L 641 3341 
Q 956 3463 1253 3523 
Q 1550 3584 1831 3584 
Q 2591 3584 2966 3190 
Q 3341 2797 3341 1997 
z
" transform="scale(0.015625)"/>
       <path id="DejaVuSans-29" d="M 513 4856 
L 1013 4856 
Q 1481 4119 1714 3412 
Q 1947 2706 1947 2009 
Q 1947 1309 1714 600 
Q 1481 -109 1013 -844 
L 513 -844 
Q 928 -128 1133 580 
Q 1338 1288 1338 2009 
Q 1338 2731 1133 3434 
Q 928 4138 513 4856 
z
" transform="scale(0.015625)"/>
       <path id="DejaVuSans-2f" d="M 1625 4666 
L 2156 4666 
L 531 -594 
L 0 -594 
L 1625 4666 
z
" transform="scale(0.015625)"/>
       <path id="DejaVuSans-5e" d="M 2988 4666 
L 4684 2925 
L 4056 2925 
L 2681 4159 
L 1306 2925 
L 678 2925 
L 2375 4666 
L 2988 4666 
z
" transform="scale(0.015625)"/>
       <path id="DejaVuSans-65" d="M 3597 1894 
L 3597 1613 
L 953 1613 
Q 991 1019 1311 708 
Q 1631 397 2203 397 
Q 2534 397 2845 478 
Q 3156 559 3463 722 
L 3463 178 
Q 3153 47 2828 -22 
Q 2503 -91 2169 -91 
Q 1331 -91 842 396 
Q 353 884 353 1716 
Q 353 2575 817 3079 
Q 1281 3584 2069 3584 
Q 2775 3584 3186 3129 
Q 3597 2675 3597 1894 
z
M 3022 2063 
Q 3016 2534 2758 2815 
Q 2500 3097 2075 3097 
Q 1594 3097 1305 2825 
Q 1016 2553 972 2059 
L 3022 2063 
z
" transform="scale(0.015625)"/>
      </defs>
      <use xlink:href="#DejaVuSans-28"/>
      <use xlink:href="#DejaVuSans-6e" transform="translate(39.013672 0)"/>
      <use xlink:href="#DejaVuSans-2a" transform="translate(102.392578 0)"/>
      <use xlink:href="#DejaVuSans-6d" transform="translate(152.392578 0)"/>
      <use xlink:href="#DejaVuSans-2b" transform="translate(249.804688 0)"/>
      <use xlink:href="#DejaVuSans-61" transform="translate(333.59375 0)"/>
      <use xlink:href="#DejaVuSans-29" transform="translate(394.873047 0)"/>
      <use xlink:href="#DejaVuSans-2f" transform="translate(433.886719 0)"/>
      <use xlink:href="#DejaVuSans-32" transform="translate(467.578125 0)"/>
      <use xlink:href="#DejaVuSans-5e" transform="translate(531.201172 0)"/>
      <use xlink:href="#DejaVuSans-65" transform="translate(614.990234 0)"/>
     </g>
    </g>
   </g>
   <g id="PathCollection_1">
    <defs>
     <path id="m3c53f74e96" d="M 0 0.25 
C 0.066301 0.25 0.129895 0.223658 0.176777 0.176777 
C 0.223658 0.129895 0.25 0.066301 0.25 0 
C 0.25 -0.066301 0.223658 -0.129895 0.176777 -0.176777 
C 0.129895 -0.223658 0.066301 -0.25 0 -0.25 
C -0.066301 -0.25 -0.129895 -0.223658 -0.176777 -0.176777 
C -0.223658 -0.129895 -0.25 -0.066301 -0.25 0 
C -0.25 0.066301 -0.223658 0.129895 -0.176777 0.176777 
C -0.129895 0.223658 -0.066301 0.25 0 0.25 
z
" style="stroke: #ff0000"/>
    </defs>
    <g clip-path="url(#p6dd1ba6b5a)">
     <use xlink:href="#m3c53f74e96" x="73.832727" y="295.488" style="fill: #ff0000; stroke: #ff0000"/>
     <use xlink:href="#m3c53f74e96" x="75.105882" y="294.539294" style="fill: #ff0000; stroke: #ff0000"/>
     <use xlink:href="#m3c53f74e96" x="76.379037" y="294.005647" style="fill: #ff0000; stroke: #ff0000"/>
     <use xlink:href="#m3c53f74e96" x="77.652193" y="293.234824" style="fill: #ff0000; stroke: #ff0000"/>
     <use xlink:href="#m3c53f74e96" x="78.925348" y="292.523294" style="fill: #ff0000; stroke: #ff0000"/>
     <use xlink:href="#m3c53f74e96" x="80.198503" y="291.693176" style="fill: #ff0000; stroke: #ff0000"/>
     <use xlink:href="#m3c53f74e96" x="81.471658" y="291.040941" style="fill: #ff0000; stroke: #ff0000"/>
     <use xlink:href="#m3c53f74e96" x="82.744813" y="290.270118" style="fill: #ff0000; stroke: #ff0000"/>
     <use xlink:href="#m3c53f74e96" x="84.017968" y="289.558588" style="fill: #ff0000; stroke: #ff0000"/>
     <use xlink:href="#m3c53f74e96" x="85.291123" y="288.372706" style="fill: #ff0000; stroke: #ff0000"/>
     <use xlink:href="#m3c53f74e96" x="86.564278" y="288.076235" style="fill: #ff0000; stroke: #ff0000"/>
     <use xlink:href="#m3c53f74e96" x="87.837433" y="287.305412" style="fill: #ff0000; stroke: #ff0000"/>
     <use xlink:href="#m3c53f74e96" x="89.110588" y="286.593882" style="fill: #ff0000; stroke: #ff0000"/>
     <use xlink:href="#m3c53f74e96" x="90.383743" y="285.763765" style="fill: #ff0000; stroke: #ff0000"/>
     <use xlink:href="#m3c53f74e96" x="91.656898" y="285.111529" style="fill: #ff0000; stroke: #ff0000"/>
     <use xlink:href="#m3c53f74e96" x="92.930053" y="284.340706" style="fill: #ff0000; stroke: #ff0000"/>
     <use xlink:href="#m3c53f74e96" x="94.203209" y="283.629176" style="fill: #ff0000; stroke: #ff0000"/>
     <use xlink:href="#m3c53f74e96" x="95.476364" y="282.680471" style="fill: #ff0000; stroke: #ff0000"/>
     <use xlink:href="#m3c53f74e96" x="96.749519" y="282.146824" style="fill: #ff0000; stroke: #ff0000"/>
     <use xlink:href="#m3c53f74e96" x="98.022674" y="281.376" style="fill: #ff0000; stroke: #ff0000"/>
     <use xlink:href="#m3c53f74e96" x="99.295829" y="280.664471" style="fill: #ff0000; stroke: #ff0000"/>
     <use xlink:href="#m3c53f74e96" x="100.568984" y="279.834353" style="fill: #ff0000; stroke: #ff0000"/>
     <use xlink:href="#m3c53f74e96" x="101.842139" y="279.182118" style="fill: #ff0000; stroke: #ff0000"/>
     <use xlink:href="#m3c53f74e96" x="103.115294" y="278.411294" style="fill: #ff0000; stroke: #ff0000"/>
     <use xlink:href="#m3c53f74e96" x="104.388449" y="277.699765" style="fill: #ff0000; stroke: #ff0000"/>
     <use xlink:href="#m3c53f74e96" x="105.661604" y="273.193412" style="fill: #ff0000; stroke: #ff0000"/>
     <use xlink:href="#m3c53f74e96" x="106.934759" y="276.217412" style="fill: #ff0000; stroke: #ff0000"/>
     <use xlink:href="#m3c53f74e96" x="108.207914" y="275.446588" style="fill: #ff0000; stroke: #ff0000"/>
     <use xlink:href="#m3c53f74e96" x="109.48107" y="274.735059" style="fill: #ff0000; stroke: #ff0000"/>
     <use xlink:href="#m3c53f74e96" x="110.754225" y="273.904941" style="fill: #ff0000; stroke: #ff0000"/>
     <use xlink:href="#m3c53f74e96" x="112.02738" y="273.252706" style="fill: #ff0000; stroke: #ff0000"/>
     <use xlink:href="#m3c53f74e96" x="113.300535" y="272.481882" style="fill: #ff0000; stroke: #ff0000"/>
     <use xlink:href="#m3c53f74e96" x="114.57369" y="271.770353" style="fill: #ff0000; stroke: #ff0000"/>
     <use xlink:href="#m3c53f74e96" x="115.846845" y="270.821647" style="fill: #ff0000; stroke: #ff0000"/>
     <use xlink:href="#m3c53f74e96" x="117.12" y="270.288" style="fill: #ff0000; stroke: #ff0000"/>
     <use xlink:href="#m3c53f74e96" x="118.393155" y="269.517176" style="fill: #ff0000; stroke: #ff0000"/>
     <use xlink:href="#m3c53f74e96" x="119.66631" y="268.805647" style="fill: #ff0000; stroke: #ff0000"/>
     <use xlink:href="#m3c53f74e96" x="120.939465" y="267.975529" style="fill: #ff0000; stroke: #ff0000"/>
     <use xlink:href="#m3c53f74e96" x="122.21262" y="267.323294" style="fill: #ff0000; stroke: #ff0000"/>
     <use xlink:href="#m3c53f74e96" x="123.485775" y="266.552471" style="fill: #ff0000; stroke: #ff0000"/>
     <use xlink:href="#m3c53f74e96" x="124.75893" y="265.840941" style="fill: #ff0000; stroke: #ff0000"/>
     <use xlink:href="#m3c53f74e96" x="126.032086" y="264.655059" style="fill: #ff0000; stroke: #ff0000"/>
     <use xlink:href="#m3c53f74e96" x="127.305241" y="264.358588" style="fill: #ff0000; stroke: #ff0000"/>
     <use xlink:href="#m3c53f74e96" x="128.578396" y="263.587765" style="fill: #ff0000; stroke: #ff0000"/>
     <use xlink:href="#m3c53f74e96" x="129.851551" y="262.876235" style="fill: #ff0000; stroke: #ff0000"/>
     <use xlink:href="#m3c53f74e96" x="131.124706" y="262.046118" style="fill: #ff0000; stroke: #ff0000"/>
     <use xlink:href="#m3c53f74e96" x="132.397861" y="261.393882" style="fill: #ff0000; stroke: #ff0000"/>
     <use xlink:href="#m3c53f74e96" x="133.671016" y="260.623059" style="fill: #ff0000; stroke: #ff0000"/>
     <use xlink:href="#m3c53f74e96" x="134.944171" y="259.911529" style="fill: #ff0000; stroke: #ff0000"/>
     <use xlink:href="#m3c53f74e96" x="136.217326" y="258.962824" style="fill: #ff0000; stroke: #ff0000"/>
     <use xlink:href="#m3c53f74e96" x="137.490481" y="258.429176" style="fill: #ff0000; stroke: #ff0000"/>
     <use xlink:href="#m3c53f74e96" x="138.763636" y="257.658353" style="fill: #ff0000; stroke: #ff0000"/>
     <use xlink:href="#m3c53f74e96" x="140.036791" y="256.946824" style="fill: #ff0000; stroke: #ff0000"/>
     <use xlink:href="#m3c53f74e96" x="141.309947" y="256.116706" style="fill: #ff0000; stroke: #ff0000"/>
     <use xlink:href="#m3c53f74e96" x="142.583102" y="255.464471" style="fill: #ff0000; stroke: #ff0000"/>
     <use xlink:href="#m3c53f74e96" x="143.856257" y="254.693647" style="fill: #ff0000; stroke: #ff0000"/>
     <use xlink:href="#m3c53f74e96" x="145.129412" y="253.982118" style="fill: #ff0000; stroke: #ff0000"/>
     <use xlink:href="#m3c53f74e96" x="146.402567" y="252.321882" style="fill: #ff0000; stroke: #ff0000"/>
     <use xlink:href="#m3c53f74e96" x="147.675722" y="252.499765" style="fill: #ff0000; stroke: #ff0000"/>
     <use xlink:href="#m3c53f74e96" x="148.948877" y="251.728941" style="fill: #ff0000; stroke: #ff0000"/>
     <use xlink:href="#m3c53f74e96" x="150.222032" y="251.017412" style="fill: #ff0000; stroke: #ff0000"/>
     <use xlink:href="#m3c53f74e96" x="151.495187" y="250.187294" style="fill: #ff0000; stroke: #ff0000"/>
     <use xlink:href="#m3c53f74e96" x="152.768342" y="249.535059" style="fill: #ff0000; stroke: #ff0000"/>
     <use xlink:href="#m3c53f74e96" x="154.041497" y="248.764235" style="fill: #ff0000; stroke: #ff0000"/>
     <use xlink:href="#m3c53f74e96" x="155.314652" y="248.052706" style="fill: #ff0000; stroke: #ff0000"/>
     <use xlink:href="#m3c53f74e96" x="156.587807" y="247.104" style="fill: #ff0000; stroke: #ff0000"/>
     <use xlink:href="#m3c53f74e96" x="157.860963" y="246.570353" style="fill: #ff0000; stroke: #ff0000"/>
     <use xlink:href="#m3c53f74e96" x="159.134118" y="245.799529" style="fill: #ff0000; stroke: #ff0000"/>
     <use xlink:href="#m3c53f74e96" x="160.407273" y="245.088" style="fill: #ff0000; stroke: #ff0000"/>
     <use xlink:href="#m3c53f74e96" x="161.680428" y="244.257882" style="fill: #ff0000; stroke: #ff0000"/>
     <use xlink:href="#m3c53f74e96" x="162.953583" y="243.605647" style="fill: #ff0000; stroke: #ff0000"/>
     <use xlink:href="#m3c53f74e96" x="164.226738" y="242.834824" style="fill: #ff0000; stroke: #ff0000"/>
     <use xlink:href="#m3c53f74e96" x="165.499893" y="242.123294" style="fill: #ff0000; stroke: #ff0000"/>
     <use xlink:href="#m3c53f74e96" x="166.773048" y="240.937412" style="fill: #ff0000; stroke: #ff0000"/>
     <use xlink:href="#m3c53f74e96" x="168.046203" y="240.640941" style="fill: #ff0000; stroke: #ff0000"/>
     <use xlink:href="#m3c53f74e96" x="169.319358" y="239.870118" style="fill: #ff0000; stroke: #ff0000"/>
     <use xlink:href="#m3c53f74e96" x="170.592513" y="239.158588" style="fill: #ff0000; stroke: #ff0000"/>
     <use xlink:href="#m3c53f74e96" x="171.865668" y="238.328471" style="fill: #ff0000; stroke: #ff0000"/>
     <use xlink:href="#m3c53f74e96" x="173.138824" y="237.676235" style="fill: #ff0000; stroke: #ff0000"/>
     <use xlink:href="#m3c53f74e96" x="174.411979" y="236.905412" style="fill: #ff0000; stroke: #ff0000"/>
     <use xlink:href="#m3c53f74e96" x="175.685134" y="236.193882" style="fill: #ff0000; stroke: #ff0000"/>
     <use xlink:href="#m3c53f74e96" x="176.958289" y="235.245176" style="fill: #ff0000; stroke: #ff0000"/>
     <use xlink:href="#m3c53f74e96" x="178.231444" y="234.711529" style="fill: #ff0000; stroke: #ff0000"/>
     <use xlink:href="#m3c53f74e96" x="179.504599" y="233.940706" style="fill: #ff0000; stroke: #ff0000"/>
     <use xlink:href="#m3c53f74e96" x="180.777754" y="233.229176" style="fill: #ff0000; stroke: #ff0000"/>
     <use xlink:href="#m3c53f74e96" x="182.050909" y="232.399059" style="fill: #ff0000; stroke: #ff0000"/>
     <use xlink:href="#m3c53f74e96" x="183.324064" y="231.746824" style="fill: #ff0000; stroke: #ff0000"/>
     <use xlink:href="#m3c53f74e96" x="184.597219" y="230.976" style="fill: #ff0000; stroke: #ff0000"/>
     <use xlink:href="#m3c53f74e96" x="185.870374" y="230.264471" style="fill: #ff0000; stroke: #ff0000"/>
     <use xlink:href="#m3c53f74e96" x="187.143529" y="227.655529" style="fill: #ff0000; stroke: #ff0000"/>
     <use xlink:href="#m3c53f74e96" x="188.416684" y="228.782118" style="fill: #ff0000; stroke: #ff0000"/>
     <use xlink:href="#m3c53f74e96" x="189.68984" y="228.011294" style="fill: #ff0000; stroke: #ff0000"/>
     <use xlink:href="#m3c53f74e96" x="190.962995" y="227.299765" style="fill: #ff0000; stroke: #ff0000"/>
     <use xlink:href="#m3c53f74e96" x="192.23615" y="226.469647" style="fill: #ff0000; stroke: #ff0000"/>
     <use xlink:href="#m3c53f74e96" x="193.509305" y="225.817412" style="fill: #ff0000; stroke: #ff0000"/>
     <use xlink:href="#m3c53f74e96" x="194.78246" y="225.046588" style="fill: #ff0000; stroke: #ff0000"/>
     <use xlink:href="#m3c53f74e96" x="196.055615" y="224.335059" style="fill: #ff0000; stroke: #ff0000"/>
     <use xlink:href="#m3c53f74e96" x="197.32877" y="223.386353" style="fill: #ff0000; stroke: #ff0000"/>
     <use xlink:href="#m3c53f74e96" x="198.601925" y="222.852706" style="fill: #ff0000; stroke: #ff0000"/>
     <use xlink:href="#m3c53f74e96" x="199.87508" y="222.081882" style="fill: #ff0000; stroke: #ff0000"/>
     <use xlink:href="#m3c53f74e96" x="201.148235" y="221.370353" style="fill: #ff0000; stroke: #ff0000"/>
     <use xlink:href="#m3c53f74e96" x="202.42139" y="220.540235" style="fill: #ff0000; stroke: #ff0000"/>
     <use xlink:href="#m3c53f74e96" x="203.694545" y="219.888" style="fill: #ff0000; stroke: #ff0000"/>
     <use xlink:href="#m3c53f74e96" x="204.967701" y="219.117176" style="fill: #ff0000; stroke: #ff0000"/>
     <use xlink:href="#m3c53f74e96" x="206.240856" y="218.405647" style="fill: #ff0000; stroke: #ff0000"/>
     <use xlink:href="#m3c53f74e96" x="207.514011" y="217.219765" style="fill: #ff0000; stroke: #ff0000"/>
     <use xlink:href="#m3c53f74e96" x="208.787166" y="216.923294" style="fill: #ff0000; stroke: #ff0000"/>
     <use xlink:href="#m3c53f74e96" x="210.060321" y="216.152471" style="fill: #ff0000; stroke: #ff0000"/>
     <use xlink:href="#m3c53f74e96" x="211.333476" y="215.440941" style="fill: #ff0000; stroke: #ff0000"/>
     <use xlink:href="#m3c53f74e96" x="212.606631" y="214.610824" style="fill: #ff0000; stroke: #ff0000"/>
     <use xlink:href="#m3c53f74e96" x="213.879786" y="213.958588" style="fill: #ff0000; stroke: #ff0000"/>
     <use xlink:href="#m3c53f74e96" x="215.152941" y="213.187765" style="fill: #ff0000; stroke: #ff0000"/>
     <use xlink:href="#m3c53f74e96" x="216.426096" y="212.476235" style="fill: #ff0000; stroke: #ff0000"/>
     <use xlink:href="#m3c53f74e96" x="217.699251" y="211.527529" style="fill: #ff0000; stroke: #ff0000"/>
     <use xlink:href="#m3c53f74e96" x="218.972406" y="210.993882" style="fill: #ff0000; stroke: #ff0000"/>
     <use xlink:href="#m3c53f74e96" x="220.245561" y="210.223059" style="fill: #ff0000; stroke: #ff0000"/>
     <use xlink:href="#m3c53f74e96" x="221.518717" y="209.511529" style="fill: #ff0000; stroke: #ff0000"/>
     <use xlink:href="#m3c53f74e96" x="222.791872" y="208.681412" style="fill: #ff0000; stroke: #ff0000"/>
     <use xlink:href="#m3c53f74e96" x="224.065027" y="208.029176" style="fill: #ff0000; stroke: #ff0000"/>
     <use xlink:href="#m3c53f74e96" x="225.338182" y="207.258353" style="fill: #ff0000; stroke: #ff0000"/>
     <use xlink:href="#m3c53f74e96" x="226.611337" y="206.546824" style="fill: #ff0000; stroke: #ff0000"/>
     <use xlink:href="#m3c53f74e96" x="227.884492" y="204.886588" style="fill: #ff0000; stroke: #ff0000"/>
     <use xlink:href="#m3c53f74e96" x="229.157647" y="205.064471" style="fill: #ff0000; stroke: #ff0000"/>
     <use xlink:href="#m3c53f74e96" x="230.430802" y="204.293647" style="fill: #ff0000; stroke: #ff0000"/>
     <use xlink:href="#m3c53f74e96" x="231.703957" y="203.582118" style="fill: #ff0000; stroke: #ff0000"/>
     <use xlink:href="#m3c53f74e96" x="232.977112" y="202.752" style="fill: #ff0000; stroke: #ff0000"/>
     <use xlink:href="#m3c53f74e96" x="234.250267" y="202.099765" style="fill: #ff0000; stroke: #ff0000"/>
     <use xlink:href="#m3c53f74e96" x="235.523422" y="201.328941" style="fill: #ff0000; stroke: #ff0000"/>
     <use xlink:href="#m3c53f74e96" x="236.796578" y="200.617412" style="fill: #ff0000; stroke: #ff0000"/>
     <use xlink:href="#m3c53f74e96" x="238.069733" y="199.668706" style="fill: #ff0000; stroke: #ff0000"/>
     <use xlink:href="#m3c53f74e96" x="239.342888" y="199.135059" style="fill: #ff0000; stroke: #ff0000"/>
     <use xlink:href="#m3c53f74e96" x="240.616043" y="198.364235" style="fill: #ff0000; stroke: #ff0000"/>
     <use xlink:href="#m3c53f74e96" x="241.889198" y="197.652706" style="fill: #ff0000; stroke: #ff0000"/>
     <use xlink:href="#m3c53f74e96" x="243.162353" y="196.822588" style="fill: #ff0000; stroke: #ff0000"/>
     <use xlink:href="#m3c53f74e96" x="244.435508" y="196.170353" style="fill: #ff0000; stroke: #ff0000"/>
     <use xlink:href="#m3c53f74e96" x="245.708663" y="195.399529" style="fill: #ff0000; stroke: #ff0000"/>
     <use xlink:href="#m3c53f74e96" x="246.981818" y="194.688" style="fill: #ff0000; stroke: #ff0000"/>
     <use xlink:href="#m3c53f74e96" x="248.254973" y="193.502118" style="fill: #ff0000; stroke: #ff0000"/>
     <use xlink:href="#m3c53f74e96" x="249.528128" y="193.205647" style="fill: #ff0000; stroke: #ff0000"/>
     <use xlink:href="#m3c53f74e96" x="250.801283" y="192.434824" style="fill: #ff0000; stroke: #ff0000"/>
     <use xlink:href="#m3c53f74e96" x="252.074439" y="191.723294" style="fill: #ff0000; stroke: #ff0000"/>
     <use xlink:href="#m3c53f74e96" x="253.347594" y="190.893176" style="fill: #ff0000; stroke: #ff0000"/>
     <use xlink:href="#m3c53f74e96" x="254.620749" y="190.240941" style="fill: #ff0000; stroke: #ff0000"/>
     <use xlink:href="#m3c53f74e96" x="255.893904" y="189.470118" style="fill: #ff0000; stroke: #ff0000"/>
     <use xlink:href="#m3c53f74e96" x="257.167059" y="188.758588" style="fill: #ff0000; stroke: #ff0000"/>
     <use xlink:href="#m3c53f74e96" x="258.440214" y="187.809882" style="fill: #ff0000; stroke: #ff0000"/>
     <use xlink:href="#m3c53f74e96" x="259.713369" y="187.276235" style="fill: #ff0000; stroke: #ff0000"/>
     <use xlink:href="#m3c53f74e96" x="260.986524" y="186.505412" style="fill: #ff0000; stroke: #ff0000"/>
     <use xlink:href="#m3c53f74e96" x="262.259679" y="185.793882" style="fill: #ff0000; stroke: #ff0000"/>
     <use xlink:href="#m3c53f74e96" x="263.532834" y="184.963765" style="fill: #ff0000; stroke: #ff0000"/>
     <use xlink:href="#m3c53f74e96" x="264.805989" y="184.311529" style="fill: #ff0000; stroke: #ff0000"/>
     <use xlink:href="#m3c53f74e96" x="266.079144" y="183.540706" style="fill: #ff0000; stroke: #ff0000"/>
     <use xlink:href="#m3c53f74e96" x="267.352299" y="182.829176" style="fill: #ff0000; stroke: #ff0000"/>
     <use xlink:href="#m3c53f74e96" x="268.625455" y="174.528" style="fill: #ff0000; stroke: #ff0000"/>
     <use xlink:href="#m3c53f74e96" x="269.89861" y="181.346824" style="fill: #ff0000; stroke: #ff0000"/>
     <use xlink:href="#m3c53f74e96" x="271.171765" y="180.576" style="fill: #ff0000; stroke: #ff0000"/>
     <use xlink:href="#m3c53f74e96" x="272.44492" y="179.864471" style="fill: #ff0000; stroke: #ff0000"/>
     <use xlink:href="#m3c53f74e96" x="273.718075" y="179.034353" style="fill: #ff0000; stroke: #ff0000"/>
     <use xlink:href="#m3c53f74e96" x="274.99123" y="178.382118" style="fill: #ff0000; stroke: #ff0000"/>
     <use xlink:href="#m3c53f74e96" x="276.264385" y="177.611294" style="fill: #ff0000; stroke: #ff0000"/>
     <use xlink:href="#m3c53f74e96" x="277.53754" y="176.899765" style="fill: #ff0000; stroke: #ff0000"/>
     <use xlink:href="#m3c53f74e96" x="278.810695" y="175.951059" style="fill: #ff0000; stroke: #ff0000"/>
     <use xlink:href="#m3c53f74e96" x="280.08385" y="175.417412" style="fill: #ff0000; stroke: #ff0000"/>
     <use xlink:href="#m3c53f74e96" x="281.357005" y="174.646588" style="fill: #ff0000; stroke: #ff0000"/>
     <use xlink:href="#m3c53f74e96" x="282.63016" y="173.935059" style="fill: #ff0000; stroke: #ff0000"/>
     <use xlink:href="#m3c53f74e96" x="283.903316" y="173.104941" style="fill: #ff0000; stroke: #ff0000"/>
     <use xlink:href="#m3c53f74e96" x="285.176471" y="172.452706" style="fill: #ff0000; stroke: #ff0000"/>
     <use xlink:href="#m3c53f74e96" x="286.449626" y="171.681882" style="fill: #ff0000; stroke: #ff0000"/>
     <use xlink:href="#m3c53f74e96" x="287.722781" y="170.970353" style="fill: #ff0000; stroke: #ff0000"/>
     <use xlink:href="#m3c53f74e96" x="288.995936" y="169.784471" style="fill: #ff0000; stroke: #ff0000"/>
     <use xlink:href="#m3c53f74e96" x="290.269091" y="169.488" style="fill: #ff0000; stroke: #ff0000"/>
     <use xlink:href="#m3c53f74e96" x="291.542246" y="168.717176" style="fill: #ff0000; stroke: #ff0000"/>
     <use xlink:href="#m3c53f74e96" x="292.815401" y="168.005647" style="fill: #ff0000; stroke: #ff0000"/>
     <use xlink:href="#m3c53f74e96" x="294.088556" y="167.175529" style="fill: #ff0000; stroke: #ff0000"/>
     <use xlink:href="#m3c53f74e96" x="295.361711" y="166.523294" style="fill: #ff0000; stroke: #ff0000"/>
     <use xlink:href="#m3c53f74e96" x="296.634866" y="165.752471" style="fill: #ff0000; stroke: #ff0000"/>
     <use xlink:href="#m3c53f74e96" x="297.908021" y="165.040941" style="fill: #ff0000; stroke: #ff0000"/>
     <use xlink:href="#m3c53f74e96" x="299.181176" y="164.092235" style="fill: #ff0000; stroke: #ff0000"/>
     <use xlink:href="#m3c53f74e96" x="300.454332" y="163.558588" style="fill: #ff0000; stroke: #ff0000"/>
     <use xlink:href="#m3c53f74e96" x="301.727487" y="162.787765" style="fill: #ff0000; stroke: #ff0000"/>
     <use xlink:href="#m3c53f74e96" x="303.000642" y="162.076235" style="fill: #ff0000; stroke: #ff0000"/>
     <use xlink:href="#m3c53f74e96" x="304.273797" y="161.246118" style="fill: #ff0000; stroke: #ff0000"/>
     <use xlink:href="#m3c53f74e96" x="305.546952" y="160.593882" style="fill: #ff0000; stroke: #ff0000"/>
     <use xlink:href="#m3c53f74e96" x="306.820107" y="159.823059" style="fill: #ff0000; stroke: #ff0000"/>
     <use xlink:href="#m3c53f74e96" x="308.093262" y="159.111529" style="fill: #ff0000; stroke: #ff0000"/>
     <use xlink:href="#m3c53f74e96" x="309.366417" y="157.451294" style="fill: #ff0000; stroke: #ff0000"/>
     <use xlink:href="#m3c53f74e96" x="310.639572" y="157.629176" style="fill: #ff0000; stroke: #ff0000"/>
     <use xlink:href="#m3c53f74e96" x="311.912727" y="156.858353" style="fill: #ff0000; stroke: #ff0000"/>
     <use xlink:href="#m3c53f74e96" x="313.185882" y="156.146824" style="fill: #ff0000; stroke: #ff0000"/>
     <use xlink:href="#m3c53f74e96" x="314.459037" y="155.316706" style="fill: #ff0000; stroke: #ff0000"/>
     <use xlink:href="#m3c53f74e96" x="315.732193" y="154.664471" style="fill: #ff0000; stroke: #ff0000"/>
     <use xlink:href="#m3c53f74e96" x="317.005348" y="153.893647" style="fill: #ff0000; stroke: #ff0000"/>
     <use xlink:href="#m3c53f74e96" x="318.278503" y="153.182118" style="fill: #ff0000; stroke: #ff0000"/>
     <use xlink:href="#m3c53f74e96" x="319.551658" y="152.233412" style="fill: #ff0000; stroke: #ff0000"/>
     <use xlink:href="#m3c53f74e96" x="320.824813" y="151.699765" style="fill: #ff0000; stroke: #ff0000"/>
     <use xlink:href="#m3c53f74e96" x="322.097968" y="150.928941" style="fill: #ff0000; stroke: #ff0000"/>
     <use xlink:href="#m3c53f74e96" x="323.371123" y="150.217412" style="fill: #ff0000; stroke: #ff0000"/>
     <use xlink:href="#m3c53f74e96" x="324.644278" y="149.387294" style="fill: #ff0000; stroke: #ff0000"/>
     <use xlink:href="#m3c53f74e96" x="325.917433" y="148.735059" style="fill: #ff0000; stroke: #ff0000"/>
     <use xlink:href="#m3c53f74e96" x="327.190588" y="147.964235" style="fill: #ff0000; stroke: #ff0000"/>
     <use xlink:href="#m3c53f74e96" x="328.463743" y="147.252706" style="fill: #ff0000; stroke: #ff0000"/>
     <use xlink:href="#m3c53f74e96" x="329.736898" y="146.066824" style="fill: #ff0000; stroke: #ff0000"/>
     <use xlink:href="#m3c53f74e96" x="331.010053" y="145.770353" style="fill: #ff0000; stroke: #ff0000"/>
     <use xlink:href="#m3c53f74e96" x="332.283209" y="144.999529" style="fill: #ff0000; stroke: #ff0000"/>
     <use xlink:href="#m3c53f74e96" x="333.556364" y="144.288" style="fill: #ff0000; stroke: #ff0000"/>
     <use xlink:href="#m3c53f74e96" x="334.829519" y="143.457882" style="fill: #ff0000; stroke: #ff0000"/>
     <use xlink:href="#m3c53f74e96" x="336.102674" y="142.805647" style="fill: #ff0000; stroke: #ff0000"/>
     <use xlink:href="#m3c53f74e96" x="337.375829" y="142.034824" style="fill: #ff0000; stroke: #ff0000"/>
     <use xlink:href="#m3c53f74e96" x="338.648984" y="141.323294" style="fill: #ff0000; stroke: #ff0000"/>
     <use xlink:href="#m3c53f74e96" x="339.922139" y="140.374588" style="fill: #ff0000; stroke: #ff0000"/>
     <use xlink:href="#m3c53f74e96" x="341.195294" y="139.840941" style="fill: #ff0000; stroke: #ff0000"/>
     <use xlink:href="#m3c53f74e96" x="342.468449" y="139.070118" style="fill: #ff0000; stroke: #ff0000"/>
     <use xlink:href="#m3c53f74e96" x="343.741604" y="138.358588" style="fill: #ff0000; stroke: #ff0000"/>
     <use xlink:href="#m3c53f74e96" x="345.014759" y="137.528471" style="fill: #ff0000; stroke: #ff0000"/>
     <use xlink:href="#m3c53f74e96" x="346.287914" y="136.876235" style="fill: #ff0000; stroke: #ff0000"/>
     <use xlink:href="#m3c53f74e96" x="347.56107" y="136.105412" style="fill: #ff0000; stroke: #ff0000"/>
     <use xlink:href="#m3c53f74e96" x="348.834225" y="135.393882" style="fill: #ff0000; stroke: #ff0000"/>
     <use xlink:href="#m3c53f74e96" x="350.10738" y="132.784941" style="fill: #ff0000; stroke: #ff0000"/>
     <use xlink:href="#m3c53f74e96" x="351.380535" y="133.911529" style="fill: #ff0000; stroke: #ff0000"/>
     <use xlink:href="#m3c53f74e96" x="352.65369" y="133.140706" style="fill: #ff0000; stroke: #ff0000"/>
     <use xlink:href="#m3c53f74e96" x="353.926845" y="132.429176" style="fill: #ff0000; stroke: #ff0000"/>
     <use xlink:href="#m3c53f74e96" x="355.2" y="131.599059" style="fill: #ff0000; stroke: #ff0000"/>
     <use xlink:href="#m3c53f74e96" x="356.473155" y="130.946824" style="fill: #ff0000; stroke: #ff0000"/>
     <use xlink:href="#m3c53f74e96" x="357.74631" y="130.176" style="fill: #ff0000; stroke: #ff0000"/>
     <use xlink:href="#m3c53f74e96" x="359.019465" y="129.464471" style="fill: #ff0000; stroke: #ff0000"/>
     <use xlink:href="#m3c53f74e96" x="360.29262" y="128.515765" style="fill: #ff0000; stroke: #ff0000"/>
     <use xlink:href="#m3c53f74e96" x="361.565775" y="127.982118" style="fill: #ff0000; stroke: #ff0000"/>
     <use xlink:href="#m3c53f74e96" x="362.83893" y="127.211294" style="fill: #ff0000; stroke: #ff0000"/>
     <use xlink:href="#m3c53f74e96" x="364.112086" y="126.499765" style="fill: #ff0000; stroke: #ff0000"/>
     <use xlink:href="#m3c53f74e96" x="365.385241" y="125.669647" style="fill: #ff0000; stroke: #ff0000"/>
     <use xlink:href="#m3c53f74e96" x="366.658396" y="125.017412" style="fill: #ff0000; stroke: #ff0000"/>
     <use xlink:href="#m3c53f74e96" x="367.931551" y="124.246588" style="fill: #ff0000; stroke: #ff0000"/>
     <use xlink:href="#m3c53f74e96" x="369.204706" y="123.535059" style="fill: #ff0000; stroke: #ff0000"/>
     <use xlink:href="#m3c53f74e96" x="370.477861" y="122.349176" style="fill: #ff0000; stroke: #ff0000"/>
     <use xlink:href="#m3c53f74e96" x="371.751016" y="122.052706" style="fill: #ff0000; stroke: #ff0000"/>
     <use xlink:href="#m3c53f74e96" x="373.024171" y="121.281882" style="fill: #ff0000; stroke: #ff0000"/>
     <use xlink:href="#m3c53f74e96" x="374.297326" y="120.570353" style="fill: #ff0000; stroke: #ff0000"/>
     <use xlink:href="#m3c53f74e96" x="375.570481" y="119.740235" style="fill: #ff0000; stroke: #ff0000"/>
     <use xlink:href="#m3c53f74e96" x="376.843636" y="119.088" style="fill: #ff0000; stroke: #ff0000"/>
     <use xlink:href="#m3c53f74e96" x="378.116791" y="118.317176" style="fill: #ff0000; stroke: #ff0000"/>
     <use xlink:href="#m3c53f74e96" x="379.389947" y="117.605647" style="fill: #ff0000; stroke: #ff0000"/>
     <use xlink:href="#m3c53f74e96" x="380.663102" y="116.656941" style="fill: #ff0000; stroke: #ff0000"/>
     <use xlink:href="#m3c53f74e96" x="381.936257" y="116.123294" style="fill: #ff0000; stroke: #ff0000"/>
     <use xlink:href="#m3c53f74e96" x="383.209412" y="115.352471" style="fill: #ff0000; stroke: #ff0000"/>
     <use xlink:href="#m3c53f74e96" x="384.482567" y="114.640941" style="fill: #ff0000; stroke: #ff0000"/>
     <use xlink:href="#m3c53f74e96" x="385.755722" y="113.810824" style="fill: #ff0000; stroke: #ff0000"/>
     <use xlink:href="#m3c53f74e96" x="387.028877" y="113.158588" style="fill: #ff0000; stroke: #ff0000"/>
     <use xlink:href="#m3c53f74e96" x="388.302032" y="112.387765" style="fill: #ff0000; stroke: #ff0000"/>
     <use xlink:href="#m3c53f74e96" x="389.575187" y="111.676235" style="fill: #ff0000; stroke: #ff0000"/>
     <use xlink:href="#m3c53f74e96" x="390.848342" y="110.016" style="fill: #ff0000; stroke: #ff0000"/>
     <use xlink:href="#m3c53f74e96" x="392.121497" y="110.193882" style="fill: #ff0000; stroke: #ff0000"/>
     <use xlink:href="#m3c53f74e96" x="393.394652" y="109.423059" style="fill: #ff0000; stroke: #ff0000"/>
     <use xlink:href="#m3c53f74e96" x="394.667807" y="108.711529" style="fill: #ff0000; stroke: #ff0000"/>
     <use xlink:href="#m3c53f74e96" x="395.940963" y="107.881412" style="fill: #ff0000; stroke: #ff0000"/>
     <use xlink:href="#m3c53f74e96" x="397.214118" y="107.229176" style="fill: #ff0000; stroke: #ff0000"/>
     <use xlink:href="#m3c53f74e96" x="398.487273" y="106.458353" style="fill: #ff0000; stroke: #ff0000"/>
    </g>
   </g>
   <g id="patch_3">
    <path d="M 57.6 307.584 
L 57.6 41.472 
" style="fill: none; stroke: #000000; stroke-width: 0.8; stroke-linejoin: miter; stroke-linecap: square"/>
   </g>
   <g id="patch_4">
    <path d="M 414.72 307.584 
L 414.72 41.472 
" style="fill: none; stroke: #000000; stroke-width: 0.8; stroke-linejoin: miter; stroke-linecap: square"/>
   </g>
   <g id="patch_5">
    <path d="M 57.6 307.584 
L 414.72 307.584 
" style="fill: none; stroke: #000000; stroke-width: 0.8; stroke-linejoin: miter; stroke-linecap: square"/>
   </g>
   <g id="patch_6">
    <path d="M 57.6 41.472 
L 414.72 41.472 
" style="fill: none; stroke: #000000; stroke-width: 0.8; stroke-linejoin: miter; stroke-linecap: square"/>
   </g>
   <g id="text_15">
    <!-- 5 2-step -->
    <g transform="translate(211.474687 35.472) scale(0.12 -0.12)">
     <defs>
      <path id="DejaVuSans-20" transform="scale(0.015625)"/>
      <path id="DejaVuSans-2d" d="M 313 2009 
L 1997 2009 
L 1997 1497 
L 313 1497 
L 313 2009 
z
" transform="scale(0.015625)"/>
      <path id="DejaVuSans-73" d="M 2834 3397 
L 2834 2853 
Q 2591 2978 2328 3040 
Q 2066 3103 1784 3103 
Q 1356 3103 1142 2972 
Q 928 2841 928 2578 
Q 928 2378 1081 2264 
Q 1234 2150 1697 2047 
L 1894 2003 
Q 2506 1872 2764 1633 
Q 3022 1394 3022 966 
Q 3022 478 2636 193 
Q 2250 -91 1575 -91 
Q 1294 -91 989 -36 
Q 684 19 347 128 
L 347 722 
Q 666 556 975 473 
Q 1284 391 1588 391 
Q 1994 391 2212 530 
Q 2431 669 2431 922 
Q 2431 1156 2273 1281 
Q 2116 1406 1581 1522 
L 1381 1569 
Q 847 1681 609 1914 
Q 372 2147 372 2553 
Q 372 3047 722 3315 
Q 1072 3584 1716 3584 
Q 2034 3584 2315 3537 
Q 2597 3491 2834 3397 
z
" transform="scale(0.015625)"/>
      <path id="DejaVuSans-74" d="M 1172 4494 
L 1172 3500 
L 2356 3500 
L 2356 3053 
L 1172 3053 
L 1172 1153 
Q 1172 725 1289 603 
Q 1406 481 1766 481 
L 2356 481 
L 2356 0 
L 1766 0 
Q 1100 0 847 248 
Q 594 497 594 1153 
L 594 3053 
L 172 3053 
L 172 3500 
L 594 3500 
L 594 4494 
L 1172 4494 
z
" transform="scale(0.015625)"/>
      <path id="DejaVuSans-70" d="M 1159 525 
L 1159 -1331 
L 581 -1331 
L 581 3500 
L 1159 3500 
L 1159 2969 
Q 1341 3281 1617 3432 
Q 1894 3584 2278 3584 
Q 2916 3584 3314 3078 
Q 3713 2572 3713 1747 
Q 3713 922 3314 415 
Q 2916 -91 2278 -91 
Q 1894 -91 1617 61 
Q 1341 213 1159 525 
z
M 3116 1747 
Q 3116 2381 2855 2742 
Q 2594 3103 2138 3103 
Q 1681 3103 1420 2742 
Q 1159 2381 1159 1747 
Q 1159 1113 1420 752 
Q 1681 391 2138 391 
Q 2594 391 2855 752 
Q 3116 1113 3116 1747 
z
" transform="scale(0.015625)"/>
     </defs>
     <use xlink:href="#DejaVuSans-35"/>
     <use xlink:href="#DejaVuSans-20" transform="translate(63.623047 0)"/>
     <use xlink:href="#DejaVuSans-32" transform="translate(95.410156 0)"/>
     <use xlink:href="#DejaVuSans-2d" transform="translate(159.033203 0)"/>
     <use xlink:href="#DejaVuSans-73" transform="translate(195.117188 0)"/>
     <use xlink:href="#DejaVuSans-74" transform="translate(247.216797 0)"/>
     <use xlink:href="#DejaVuSans-65" transform="translate(286.425781 0)"/>
     <use xlink:href="#DejaVuSans-70" transform="translate(347.949219 0)"/>
    </g>
   </g>
   <g id="legend_1">
    <g id="patch_7">
     <path d="M 64.6 78.82825 
L 162.025 78.82825 
Q 164.025 78.82825 164.025 76.82825 
L 164.025 48.472 
Q 164.025 46.472 162.025 46.472 
L 64.6 46.472 
Q 62.6 46.472 62.6 48.472 
L 62.6 76.82825 
Q 62.6 78.82825 64.6 78.82825 
z
" style="fill: #ffffff; opacity: 0.8; stroke: #cccccc; stroke-linejoin: miter"/>
    </g>
    <g id="line2d_14">
     <path d="M 66.6 54.570437 
L 76.6 54.570437 
L 86.6 54.570437 
" style="fill: none; stroke: #0000ff; stroke-linecap: square"/>
    </g>
    <g id="text_16">
     <!-- Loop Line -->
     <g transform="translate(94.6 58.070437) scale(0.1 -0.1)">
      <defs>
       <path id="DejaVuSans-4c" d="M 628 4666 
L 1259 4666 
L 1259 531 
L 3531 531 
L 3531 0 
L 628 0 
L 628 4666 
z
" transform="scale(0.015625)"/>
       <path id="DejaVuSans-6f" d="M 1959 3097 
Q 1497 3097 1228 2736 
Q 959 2375 959 1747 
Q 959 1119 1226 758 
Q 1494 397 1959 397 
Q 2419 397 2687 759 
Q 2956 1122 2956 1747 
Q 2956 2369 2687 2733 
Q 2419 3097 1959 3097 
z
M 1959 3584 
Q 2709 3584 3137 3096 
Q 3566 2609 3566 1747 
Q 3566 888 3137 398 
Q 2709 -91 1959 -91 
Q 1206 -91 779 398 
Q 353 888 353 1747 
Q 353 2609 779 3096 
Q 1206 3584 1959 3584 
z
" transform="scale(0.015625)"/>
       <path id="DejaVuSans-69" d="M 603 3500 
L 1178 3500 
L 1178 0 
L 603 0 
L 603 3500 
z
M 603 4863 
L 1178 4863 
L 1178 4134 
L 603 4134 
L 603 4863 
z
" transform="scale(0.015625)"/>
      </defs>
      <use xlink:href="#DejaVuSans-4c"/>
      <use xlink:href="#DejaVuSans-6f" transform="translate(53.962891 0)"/>
      <use xlink:href="#DejaVuSans-6f" transform="translate(115.144531 0)"/>
      <use xlink:href="#DejaVuSans-70" transform="translate(176.326172 0)"/>
      <use xlink:href="#DejaVuSans-20" transform="translate(239.802734 0)"/>
      <use xlink:href="#DejaVuSans-4c" transform="translate(271.589844 0)"/>
      <use xlink:href="#DejaVuSans-69" transform="translate(327.302734 0)"/>
      <use xlink:href="#DejaVuSans-6e" transform="translate(355.085938 0)"/>
      <use xlink:href="#DejaVuSans-65" transform="translate(418.464844 0)"/>
     </g>
    </g>
    <g id="PathCollection_2">
     <g>
      <use xlink:href="#m3c53f74e96" x="76.6" y="70.123562" style="fill: #ff0000; stroke: #ff0000"/>
     </g>
    </g>
    <g id="text_17">
     <!-- 5 2-step 2^4 -->
     <g transform="translate(94.6 72.748562) scale(0.1 -0.1)">
      <use xlink:href="#DejaVuSans-35"/>
      <use xlink:href="#DejaVuSans-20" transform="translate(63.623047 0)"/>
      <use xlink:href="#DejaVuSans-32" transform="translate(95.410156 0)"/>
      <use xlink:href="#DejaVuSans-2d" transform="translate(159.033203 0)"/>
      <use xlink:href="#DejaVuSans-73" transform="translate(195.117188 0)"/>
      <use xlink:href="#DejaVuSans-74" transform="translate(247.216797 0)"/>
      <use xlink:href="#DejaVuSans-65" transform="translate(286.425781 0)"/>
      <use xlink:href="#DejaVuSans-70" transform="translate(347.949219 0)"/>
      <use xlink:href="#DejaVuSans-20" transform="translate(411.425781 0)"/>
      <use xlink:href="#DejaVuSans-32" transform="translate(443.212891 0)"/>
      <use xlink:href="#DejaVuSans-5e" transform="translate(506.835938 0)"/>
      <use xlink:href="#DejaVuSans-34" transform="translate(590.625 0)"/>
     </g>
    </g>
   </g>
  </g>
 </g>
 <defs>
  <clipPath id="p6dd1ba6b5a">
   <rect x="57.6" y="41.472" width="357.12" height="266.112"/>
  </clipPath>
 </defs>
</svg>
