<?xml version="1.0" encoding="utf-8" standalone="no"?>
<!DOCTYPE svg PUBLIC "-//W3C//DTD SVG 1.1//EN"
  "http://www.w3.org/Graphics/SVG/1.1/DTD/svg11.dtd">
<svg xmlns:xlink="http://www.w3.org/1999/xlink" width="460.8pt" height="345.6pt" viewBox="0 0 460.8 345.6" xmlns="http://www.w3.org/2000/svg" version="1.1">
 <metadata>
  <rdf:RDF xmlns:dc="http://purl.org/dc/elements/1.1/" xmlns:cc="http://creativecommons.org/ns#" xmlns:rdf="http://www.w3.org/1999/02/22-rdf-syntax-ns#">
   <cc:Work>
    <dc:type rdf:resource="http://purl.org/dc/dcmitype/StillImage"/>
    <dc:date>2025-03-23T20:39:41.932868</dc:date>
    <dc:format>image/svg+xml</dc:format>
    <dc:creator>
     <cc:Agent>
      <dc:title>Matplotlib v3.10.1, https://matplotlib.org/</dc:title>
     </cc:Agent>
    </dc:creator>
   </cc:Work>
  </rdf:RDF>
 </metadata>
 <defs>
  <style type="text/css">*{stroke-linejoin: round; stroke-linecap: butt}</style>
 </defs>
 <g id="figure_1">
  <g id="patch_1">
   <path d="M 0 345.6 
L 460.8 345.6 
L 460.8 0 
L 0 0 
z
" style="fill: #ffffff"/>
  </g>
  <g id="axes_1">
   <g id="patch_2">
    <path d="M 57.6 307.584 
L 414.72 307.584 
L 414.72 41.472 
L 57.6 41.472 
z
" style="fill: #ffffff"/>
   </g>
   <g id="line2d_1">
    <path d="M 73.832727 295.488 
L 398.487273 54.041425 
L 398.487273 54.041425 
" clip-path="url(#p6cdc28939e)" style="fill: none; stroke: #0000ff; stroke-linecap: square"/>
   </g>
   <g id="matplotlib.axis_1">
    <g id="xtick_1">
     <g id="line2d_2">
      <defs>
       <path id="m61f798e969" d="M 0 0 
L 0 3.5 
" style="stroke: #000000; stroke-width: 0.8"/>
      </defs>
      <g>
       <use xlink:href="#m61f798e969" x="73.19615" y="307.584" style="stroke: #000000; stroke-width: 0.8"/>
      </g>
     </g>
     <g id="text_1">
      <!-- 0 -->
      <g transform="translate(70.0149 322.182437) scale(0.1 -0.1)">
       <defs>
        <path id="DejaVuSans-30" d="M 2034 4250 
Q 1547 4250 1301 3770 
Q 1056 3291 1056 2328 
Q 1056 1369 1301 889 
Q 1547 409 2034 409 
Q 2525 409 2770 889 
Q 3016 1369 3016 2328 
Q 3016 3291 2770 3770 
Q 2525 4250 2034 4250 
z
M 2034 4750 
Q 2819 4750 3233 4129 
Q 3647 3509 3647 2328 
Q 3647 1150 3233 529 
Q 2819 -91 2034 -91 
Q 1250 -91 836 529 
Q 422 1150 422 2328 
Q 422 3509 836 4129 
Q 1250 4750 2034 4750 
z
" transform="scale(0.015625)"/>
       </defs>
       <use xlink:href="#DejaVuSans-30"/>
      </g>
     </g>
    </g>
    <g id="xtick_2">
     <g id="line2d_3">
      <g>
       <use xlink:href="#m61f798e969" x="136.853904" y="307.584" style="stroke: #000000; stroke-width: 0.8"/>
      </g>
     </g>
     <g id="text_2">
      <!-- 100 -->
      <g transform="translate(127.310154 322.182437) scale(0.1 -0.1)">
       <defs>
        <path id="DejaVuSans-31" d="M 794 531 
L 1825 531 
L 1825 4091 
L 703 3866 
L 703 4441 
L 1819 4666 
L 2450 4666 
L 2450 531 
L 3481 531 
L 3481 0 
L 794 0 
L 794 531 
z
" transform="scale(0.015625)"/>
       </defs>
       <use xlink:href="#DejaVuSans-31"/>
       <use xlink:href="#DejaVuSans-30" transform="translate(63.623047 0)"/>
       <use xlink:href="#DejaVuSans-30" transform="translate(127.246094 0)"/>
      </g>
     </g>
    </g>
    <g id="xtick_3">
     <g id="line2d_4">
      <g>
       <use xlink:href="#m61f798e969" x="200.511658" y="307.584" style="stroke: #000000; stroke-width: 0.8"/>
      </g>
     </g>
     <g id="text_3">
      <!-- 200 -->
      <g transform="translate(190.967908 322.182437) scale(0.1 -0.1)">
       <defs>
        <path id="DejaVuSans-32" d="M 1228 531 
L 3431 531 
L 3431 0 
L 469 0 
L 469 531 
Q 828 903 1448 1529 
Q 2069 2156 2228 2338 
Q 2531 2678 2651 2914 
Q 2772 3150 2772 3378 
Q 2772 3750 2511 3984 
Q 2250 4219 1831 4219 
Q 1534 4219 1204 4116 
Q 875 4013 500 3803 
L 500 4441 
Q 881 4594 1212 4672 
Q 1544 4750 1819 4750 
Q 2544 4750 2975 4387 
Q 3406 4025 3406 3419 
Q 3406 3131 3298 2873 
Q 3191 2616 2906 2266 
Q 2828 2175 2409 1742 
Q 1991 1309 1228 531 
z
" transform="scale(0.015625)"/>
       </defs>
       <use xlink:href="#DejaVuSans-32"/>
       <use xlink:href="#DejaVuSans-30" transform="translate(63.623047 0)"/>
       <use xlink:href="#DejaVuSans-30" transform="translate(127.246094 0)"/>
      </g>
     </g>
    </g>
    <g id="xtick_4">
     <g id="line2d_5">
      <g>
       <use xlink:href="#m61f798e969" x="264.169412" y="307.584" style="stroke: #000000; stroke-width: 0.8"/>
      </g>
     </g>
     <g id="text_4">
      <!-- 300 -->
      <g transform="translate(254.625662 322.182437) scale(0.1 -0.1)">
       <defs>
        <path id="DejaVuSans-33" d="M 2597 2516 
Q 3050 2419 3304 2112 
Q 3559 1806 3559 1356 
Q 3559 666 3084 287 
Q 2609 -91 1734 -91 
Q 1441 -91 1130 -33 
Q 819 25 488 141 
L 488 750 
Q 750 597 1062 519 
Q 1375 441 1716 441 
Q 2309 441 2620 675 
Q 2931 909 2931 1356 
Q 2931 1769 2642 2001 
Q 2353 2234 1838 2234 
L 1294 2234 
L 1294 2753 
L 1863 2753 
Q 2328 2753 2575 2939 
Q 2822 3125 2822 3475 
Q 2822 3834 2567 4026 
Q 2313 4219 1838 4219 
Q 1578 4219 1281 4162 
Q 984 4106 628 3988 
L 628 4550 
Q 988 4650 1302 4700 
Q 1616 4750 1894 4750 
Q 2613 4750 3031 4423 
Q 3450 4097 3450 3541 
Q 3450 3153 3228 2886 
Q 3006 2619 2597 2516 
z
" transform="scale(0.015625)"/>
       </defs>
       <use xlink:href="#DejaVuSans-33"/>
       <use xlink:href="#DejaVuSans-30" transform="translate(63.623047 0)"/>
       <use xlink:href="#DejaVuSans-30" transform="translate(127.246094 0)"/>
      </g>
     </g>
    </g>
    <g id="xtick_5">
     <g id="line2d_6">
      <g>
       <use xlink:href="#m61f798e969" x="327.827166" y="307.584" style="stroke: #000000; stroke-width: 0.8"/>
      </g>
     </g>
     <g id="text_5">
      <!-- 400 -->
      <g transform="translate(318.283416 322.182437) scale(0.1 -0.1)">
       <defs>
        <path id="DejaVuSans-34" d="M 2419 4116 
L 825 1625 
L 2419 1625 
L 2419 4116 
z
M 2253 4666 
L 3047 4666 
L 3047 1625 
L 3713 1625 
L 3713 1100 
L 3047 1100 
L 3047 0 
L 2419 0 
L 2419 1100 
L 313 1100 
L 313 1709 
L 2253 4666 
z
" transform="scale(0.015625)"/>
       </defs>
       <use xlink:href="#DejaVuSans-34"/>
       <use xlink:href="#DejaVuSans-30" transform="translate(63.623047 0)"/>
       <use xlink:href="#DejaVuSans-30" transform="translate(127.246094 0)"/>
      </g>
     </g>
    </g>
    <g id="xtick_6">
     <g id="line2d_7">
      <g>
       <use xlink:href="#m61f798e969" x="391.48492" y="307.584" style="stroke: #000000; stroke-width: 0.8"/>
      </g>
     </g>
     <g id="text_6">
      <!-- 500 -->
      <g transform="translate(381.94117 322.182437) scale(0.1 -0.1)">
       <defs>
        <path id="DejaVuSans-35" d="M 691 4666 
L 3169 4666 
L 3169 4134 
L 1269 4134 
L 1269 2991 
Q 1406 3038 1543 3061 
Q 1681 3084 1819 3084 
Q 2600 3084 3056 2656 
Q 3513 2228 3513 1497 
Q 3513 744 3044 326 
Q 2575 -91 1722 -91 
Q 1428 -91 1123 -41 
Q 819 9 494 109 
L 494 744 
Q 775 591 1075 516 
Q 1375 441 1709 441 
Q 2250 441 2565 725 
Q 2881 1009 2881 1497 
Q 2881 1984 2565 2268 
Q 2250 2553 1709 2553 
Q 1456 2553 1204 2497 
Q 953 2441 691 2322 
L 691 4666 
z
" transform="scale(0.015625)"/>
       </defs>
       <use xlink:href="#DejaVuSans-35"/>
       <use xlink:href="#DejaVuSans-30" transform="translate(63.623047 0)"/>
       <use xlink:href="#DejaVuSans-30" transform="translate(127.246094 0)"/>
      </g>
     </g>
    </g>
    <g id="text_7">
     <!-- n -->
     <g transform="translate(232.99125 335.860562) scale(0.1 -0.1)">
      <defs>
       <path id="DejaVuSans-6e" d="M 3513 2113 
L 3513 0 
L 2938 0 
L 2938 2094 
Q 2938 2591 2744 2837 
Q 2550 3084 2163 3084 
Q 1697 3084 1428 2787 
Q 1159 2491 1159 1978 
L 1159 0 
L 581 0 
L 581 3500 
L 1159 3500 
L 1159 2956 
Q 1366 3272 1645 3428 
Q 1925 3584 2291 3584 
Q 2894 3584 3203 3211 
Q 3513 2838 3513 2113 
z
" transform="scale(0.015625)"/>
      </defs>
      <use xlink:href="#DejaVuSans-6e"/>
     </g>
    </g>
   </g>
   <g id="matplotlib.axis_2">
    <g id="ytick_1">
     <g id="line2d_8">
      <defs>
       <path id="m71bb34f94a" d="M 0 0 
L -3.5 0 
" style="stroke: #000000; stroke-width: 0.8"/>
      </defs>
      <g>
       <use xlink:href="#m71bb34f94a" x="57.6" y="295.961425" style="stroke: #000000; stroke-width: 0.8"/>
      </g>
     </g>
     <g id="text_8">
      <!-- 0 -->
      <g transform="translate(44.2375 299.760643) scale(0.1 -0.1)">
       <use xlink:href="#DejaVuSans-30"/>
      </g>
     </g>
    </g>
    <g id="ytick_2">
     <g id="line2d_9">
      <g>
       <use xlink:href="#m71bb34f94a" x="57.6" y="248.618959" style="stroke: #000000; stroke-width: 0.8"/>
      </g>
     </g>
     <g id="text_9">
      <!-- 100 -->
      <g transform="translate(31.5125 252.418178) scale(0.1 -0.1)">
       <use xlink:href="#DejaVuSans-31"/>
       <use xlink:href="#DejaVuSans-30" transform="translate(63.623047 0)"/>
       <use xlink:href="#DejaVuSans-30" transform="translate(127.246094 0)"/>
      </g>
     </g>
    </g>
    <g id="ytick_3">
     <g id="line2d_10">
      <g>
       <use xlink:href="#m71bb34f94a" x="57.6" y="201.276493" style="stroke: #000000; stroke-width: 0.8"/>
      </g>
     </g>
     <g id="text_10">
      <!-- 200 -->
      <g transform="translate(31.5125 205.075712) scale(0.1 -0.1)">
       <use xlink:href="#DejaVuSans-32"/>
       <use xlink:href="#DejaVuSans-30" transform="translate(63.623047 0)"/>
       <use xlink:href="#DejaVuSans-30" transform="translate(127.246094 0)"/>
      </g>
     </g>
    </g>
    <g id="ytick_4">
     <g id="line2d_11">
      <g>
       <use xlink:href="#m71bb34f94a" x="57.6" y="153.934027" style="stroke: #000000; stroke-width: 0.8"/>
      </g>
     </g>
     <g id="text_11">
      <!-- 300 -->
      <g transform="translate(31.5125 157.733246) scale(0.1 -0.1)">
       <use xlink:href="#DejaVuSans-33"/>
       <use xlink:href="#DejaVuSans-30" transform="translate(63.623047 0)"/>
       <use xlink:href="#DejaVuSans-30" transform="translate(127.246094 0)"/>
      </g>
     </g>
    </g>
    <g id="ytick_5">
     <g id="line2d_12">
      <g>
       <use xlink:href="#m71bb34f94a" x="57.6" y="106.591562" style="stroke: #000000; stroke-width: 0.8"/>
      </g>
     </g>
     <g id="text_12">
      <!-- 400 -->
      <g transform="translate(31.5125 110.39078) scale(0.1 -0.1)">
       <use xlink:href="#DejaVuSans-34"/>
       <use xlink:href="#DejaVuSans-30" transform="translate(63.623047 0)"/>
       <use xlink:href="#DejaVuSans-30" transform="translate(127.246094 0)"/>
      </g>
     </g>
    </g>
    <g id="ytick_6">
     <g id="line2d_13">
      <g>
       <use xlink:href="#m71bb34f94a" x="57.6" y="59.249096" style="stroke: #000000; stroke-width: 0.8"/>
      </g>
     </g>
     <g id="text_13">
      <!-- 500 -->
      <g transform="translate(31.5125 63.048315) scale(0.1 -0.1)">
       <use xlink:href="#DejaVuSans-35"/>
       <use xlink:href="#DejaVuSans-30" transform="translate(63.623047 0)"/>
       <use xlink:href="#DejaVuSans-30" transform="translate(127.246094 0)"/>
      </g>
     </g>
    </g>
    <g id="text_14">
     <!-- (n*m+a)/2^e -->
     <g transform="translate(25.432812 208.354562) rotate(-90) scale(0.1 -0.1)">
      <defs>
       <path id="DejaVuSans-28" d="M 1984 4856 
Q 1566 4138 1362 3434 
Q 1159 2731 1159 2009 
Q 1159 1288 1364 580 
Q 1569 -128 1984 -844 
L 1484 -844 
Q 1016 -109 783 600 
Q 550 1309 550 2009 
Q 550 2706 781 3412 
Q 1013 4119 1484 4856 
L 1984 4856 
z
" transform="scale(0.015625)"/>
       <path id="DejaVuSans-2a" d="M 3009 3897 
L 1888 3291 
L 3009 2681 
L 2828 2375 
L 1778 3009 
L 1778 1831 
L 1422 1831 
L 1422 3009 
L 372 2375 
L 191 2681 
L 1313 3291 
L 191 3897 
L 372 4206 
L 1422 3572 
L 1422 4750 
L 1778 4750 
L 1778 3572 
L 2828 4206 
L 3009 3897 
z
" transform="scale(0.015625)"/>
       <path id="DejaVuSans-6d" d="M 3328 2828 
Q 3544 3216 3844 3400 
Q 4144 3584 4550 3584 
Q 5097 3584 5394 3201 
Q 5691 2819 5691 2113 
L 5691 0 
L 5113 0 
L 5113 2094 
Q 5113 2597 4934 2840 
Q 4756 3084 4391 3084 
Q 3944 3084 3684 2787 
Q 3425 2491 3425 1978 
L 3425 0 
L 2847 0 
L 2847 2094 
Q 2847 2600 2669 2842 
Q 2491 3084 2119 3084 
Q 1678 3084 1418 2786 
Q 1159 2488 1159 1978 
L 1159 0 
L 581 0 
L 581 3500 
L 1159 3500 
L 1159 2956 
Q 1356 3278 1631 3431 
Q 1906 3584 2284 3584 
Q 2666 3584 2933 3390 
Q 3200 3197 3328 2828 
z
" transform="scale(0.015625)"/>
       <path id="DejaVuSans-2b" d="M 2944 4013 
L 2944 2272 
L 4684 2272 
L 4684 1741 
L 2944 1741 
L 2944 0 
L 2419 0 
L 2419 1741 
L 678 1741 
L 678 2272 
L 2419 2272 
L 2419 4013 
L 2944 4013 
z
" transform="scale(0.015625)"/>
       <path id="DejaVuSans-61" d="M 2194 1759 
Q 1497 1759 1228 1600 
Q 959 1441 959 1056 
Q 959 750 1161 570 
Q 1363 391 1709 391 
Q 2188 391 2477 730 
Q 2766 1069 2766 1631 
L 2766 1759 
L 2194 1759 
z
M 3341 1997 
L 3341 0 
L 2766 0 
L 2766 531 
Q 2569 213 2275 61 
Q 1981 -91 1556 -91 
Q 1019 -91 701 211 
Q 384 513 384 1019 
Q 384 1609 779 1909 
Q 1175 2209 1959 2209 
L 2766 2209 
L 2766 2266 
Q 2766 2663 2505 2880 
Q 2244 3097 1772 3097 
Q 1472 3097 1187 3025 
Q 903 2953 641 2809 
L 641 3341 
Q 956 3463 1253 3523 
Q 1550 3584 1831 3584 
Q 2591 3584 2966 3190 
Q 3341 2797 3341 1997 
z
" transform="scale(0.015625)"/>
       <path id="DejaVuSans-29" d="M 513 4856 
L 1013 4856 
Q 1481 4119 1714 3412 
Q 1947 2706 1947 2009 
Q 1947 1309 1714 600 
Q 1481 -109 1013 -844 
L 513 -844 
Q 928 -128 1133 580 
Q 1338 1288 1338 2009 
Q 1338 2731 1133 3434 
Q 928 4138 513 4856 
z
" transform="scale(0.015625)"/>
       <path id="DejaVuSans-2f" d="M 1625 4666 
L 2156 4666 
L 531 -594 
L 0 -594 
L 1625 4666 
z
" transform="scale(0.015625)"/>
       <path id="DejaVuSans-5e" d="M 2988 4666 
L 4684 2925 
L 4056 2925 
L 2681 4159 
L 1306 2925 
L 678 2925 
L 2375 4666 
L 2988 4666 
z
" transform="scale(0.015625)"/>
       <path id="DejaVuSans-65" d="M 3597 1894 
L 3597 1613 
L 953 1613 
Q 991 1019 1311 708 
Q 1631 397 2203 397 
Q 2534 397 2845 478 
Q 3156 559 3463 722 
L 3463 178 
Q 3153 47 2828 -22 
Q 2503 -91 2169 -91 
Q 1331 -91 842 396 
Q 353 884 353 1716 
Q 353 2575 817 3079 
Q 1281 3584 2069 3584 
Q 2775 3584 3186 3129 
Q 3597 2675 3597 1894 
z
M 3022 2063 
Q 3016 2534 2758 2815 
Q 2500 3097 2075 3097 
Q 1594 3097 1305 2825 
Q 1016 2553 972 2059 
L 3022 2063 
z
" transform="scale(0.015625)"/>
      </defs>
      <use xlink:href="#DejaVuSans-28"/>
      <use xlink:href="#DejaVuSans-6e" transform="translate(39.013672 0)"/>
      <use xlink:href="#DejaVuSans-2a" transform="translate(102.392578 0)"/>
      <use xlink:href="#DejaVuSans-6d" transform="translate(152.392578 0)"/>
      <use xlink:href="#DejaVuSans-2b" transform="translate(249.804688 0)"/>
      <use xlink:href="#DejaVuSans-61" transform="translate(333.59375 0)"/>
      <use xlink:href="#DejaVuSans-29" transform="translate(394.873047 0)"/>
      <use xlink:href="#DejaVuSans-2f" transform="translate(433.886719 0)"/>
      <use xlink:href="#DejaVuSans-32" transform="translate(467.578125 0)"/>
      <use xlink:href="#DejaVuSans-5e" transform="translate(531.201172 0)"/>
      <use xlink:href="#DejaVuSans-65" transform="translate(614.990234 0)"/>
     </g>
    </g>
   </g>
   <g id="PathCollection_1">
    <defs>
     <path id="m44d369b3ad" d="M 0 0.25 
C 0.066301 0.25 0.129895 0.223658 0.176777 0.176777 
C 0.223658 0.129895 0.25 0.066301 0.25 0 
C 0.25 -0.066301 0.223658 -0.129895 0.176777 -0.176777 
C 0.129895 -0.223658 0.066301 -0.25 0 -0.25 
C -0.066301 -0.25 -0.129895 -0.223658 -0.176777 -0.176777 
C -0.223658 -0.129895 -0.25 -0.066301 -0.25 0 
C -0.25 0.066301 -0.223658 0.129895 -0.176777 0.176777 
C -0.129895 0.223658 -0.066301 0.25 0 0.25 
z
" style="stroke: #ff0000"/>
    </defs>
    <g clip-path="url(#p6cdc28939e)">
     <use xlink:href="#m44d369b3ad" x="73.832727" y="295.251288" style="fill: #ff0000; stroke: #ff0000"/>
     <use xlink:href="#m44d369b3ad" x="75.105882" y="294.067726" style="fill: #ff0000; stroke: #ff0000"/>
     <use xlink:href="#m44d369b3ad" x="76.379037" y="293.505534" style="fill: #ff0000; stroke: #ff0000"/>
     <use xlink:href="#m44d369b3ad" x="77.652193" y="292.529096" style="fill: #ff0000; stroke: #ff0000"/>
     <use xlink:href="#m44d369b3ad" x="78.925348" y="291.641425" style="fill: #ff0000; stroke: #ff0000"/>
     <use xlink:href="#m44d369b3ad" x="80.198503" y="290.517041" style="fill: #ff0000; stroke: #ff0000"/>
     <use xlink:href="#m44d369b3ad" x="81.471658" y="289.806904" style="fill: #ff0000; stroke: #ff0000"/>
     <use xlink:href="#m44d369b3ad" x="82.744813" y="288.38663" style="fill: #ff0000; stroke: #ff0000"/>
     <use xlink:href="#m44d369b3ad" x="84.017968" y="287.913205" style="fill: #ff0000; stroke: #ff0000"/>
     <use xlink:href="#m44d369b3ad" x="85.291123" y="284.599233" style="fill: #ff0000; stroke: #ff0000"/>
     <use xlink:href="#m44d369b3ad" x="86.564278" y="286.108274" style="fill: #ff0000; stroke: #ff0000"/>
     <use xlink:href="#m44d369b3ad" x="87.837433" y="285.131836" style="fill: #ff0000; stroke: #ff0000"/>
     <use xlink:href="#m44d369b3ad" x="89.110588" y="284.244164" style="fill: #ff0000; stroke: #ff0000"/>
     <use xlink:href="#m44d369b3ad" x="90.383743" y="283.178959" style="fill: #ff0000; stroke: #ff0000"/>
     <use xlink:href="#m44d369b3ad" x="91.656898" y="282.409644" style="fill: #ff0000; stroke: #ff0000"/>
     <use xlink:href="#m44d369b3ad" x="92.930053" y="281.403616" style="fill: #ff0000; stroke: #ff0000"/>
     <use xlink:href="#m44d369b3ad" x="94.203209" y="280.338411" style="fill: #ff0000; stroke: #ff0000"/>
     <use xlink:href="#m44d369b3ad" x="95.476364" y="278.918137" style="fill: #ff0000; stroke: #ff0000"/>
     <use xlink:href="#m44d369b3ad" x="96.749519" y="278.711014" style="fill: #ff0000; stroke: #ff0000"/>
     <use xlink:href="#m44d369b3ad" x="98.022674" y="277.734575" style="fill: #ff0000; stroke: #ff0000"/>
     <use xlink:href="#m44d369b3ad" x="99.295829" y="276.846904" style="fill: #ff0000; stroke: #ff0000"/>
     <use xlink:href="#m44d369b3ad" x="100.568984" y="275.604164" style="fill: #ff0000; stroke: #ff0000"/>
     <use xlink:href="#m44d369b3ad" x="101.842139" y="275.012384" style="fill: #ff0000; stroke: #ff0000"/>
     <use xlink:href="#m44d369b3ad" x="103.115294" y="273.947178" style="fill: #ff0000; stroke: #ff0000"/>
     <use xlink:href="#m44d369b3ad" x="104.388449" y="273.118685" style="fill: #ff0000; stroke: #ff0000"/>
     <use xlink:href="#m44d369b3ad" x="105.661604" y="265.662247" style="fill: #ff0000; stroke: #ff0000"/>
     <use xlink:href="#m44d369b3ad" x="106.934759" y="271.313753" style="fill: #ff0000; stroke: #ff0000"/>
     <use xlink:href="#m44d369b3ad" x="108.207914" y="270.337315" style="fill: #ff0000; stroke: #ff0000"/>
     <use xlink:href="#m44d369b3ad" x="109.48107" y="269.449644" style="fill: #ff0000; stroke: #ff0000"/>
     <use xlink:href="#m44d369b3ad" x="110.754225" y="268.384438" style="fill: #ff0000; stroke: #ff0000"/>
     <use xlink:href="#m44d369b3ad" x="112.02738" y="267.615123" style="fill: #ff0000; stroke: #ff0000"/>
     <use xlink:href="#m44d369b3ad" x="113.300535" y="266.609096" style="fill: #ff0000; stroke: #ff0000"/>
     <use xlink:href="#m44d369b3ad" x="114.57369" y="265.662247" style="fill: #ff0000; stroke: #ff0000"/>
     <use xlink:href="#m44d369b3ad" x="115.846845" y="264.478685" style="fill: #ff0000; stroke: #ff0000"/>
     <use xlink:href="#m44d369b3ad" x="117.12" y="263.916493" style="fill: #ff0000; stroke: #ff0000"/>
     <use xlink:href="#m44d369b3ad" x="118.393155" y="262.940055" style="fill: #ff0000; stroke: #ff0000"/>
     <use xlink:href="#m44d369b3ad" x="119.66631" y="262.052384" style="fill: #ff0000; stroke: #ff0000"/>
     <use xlink:href="#m44d369b3ad" x="120.939465" y="260.928" style="fill: #ff0000; stroke: #ff0000"/>
     <use xlink:href="#m44d369b3ad" x="122.21262" y="260.217863" style="fill: #ff0000; stroke: #ff0000"/>
     <use xlink:href="#m44d369b3ad" x="123.485775" y="259.034301" style="fill: #ff0000; stroke: #ff0000"/>
     <use xlink:href="#m44d369b3ad" x="124.75893" y="258.324164" style="fill: #ff0000; stroke: #ff0000"/>
     <use xlink:href="#m44d369b3ad" x="126.032086" y="256.667178" style="fill: #ff0000; stroke: #ff0000"/>
     <use xlink:href="#m44d369b3ad" x="127.305241" y="256.519233" style="fill: #ff0000; stroke: #ff0000"/>
     <use xlink:href="#m44d369b3ad" x="128.578396" y="255.542795" style="fill: #ff0000; stroke: #ff0000"/>
     <use xlink:href="#m44d369b3ad" x="129.851551" y="254.655123" style="fill: #ff0000; stroke: #ff0000"/>
     <use xlink:href="#m44d369b3ad" x="131.124706" y="253.589918" style="fill: #ff0000; stroke: #ff0000"/>
     <use xlink:href="#m44d369b3ad" x="132.397861" y="252.820603" style="fill: #ff0000; stroke: #ff0000"/>
     <use xlink:href="#m44d369b3ad" x="133.671016" y="251.814575" style="fill: #ff0000; stroke: #ff0000"/>
     <use xlink:href="#m44d369b3ad" x="134.944171" y="250.512658" style="fill: #ff0000; stroke: #ff0000"/>
     <use xlink:href="#m44d369b3ad" x="136.217326" y="249.565808" style="fill: #ff0000; stroke: #ff0000"/>
     <use xlink:href="#m44d369b3ad" x="137.490481" y="249.121973" style="fill: #ff0000; stroke: #ff0000"/>
     <use xlink:href="#m44d369b3ad" x="138.763636" y="248.145534" style="fill: #ff0000; stroke: #ff0000"/>
     <use xlink:href="#m44d369b3ad" x="140.036791" y="247.257863" style="fill: #ff0000; stroke: #ff0000"/>
     <use xlink:href="#m44d369b3ad" x="141.309947" y="245.778411" style="fill: #ff0000; stroke: #ff0000"/>
     <use xlink:href="#m44d369b3ad" x="142.583102" y="245.423342" style="fill: #ff0000; stroke: #ff0000"/>
     <use xlink:href="#m44d369b3ad" x="143.856257" y="244.358137" style="fill: #ff0000; stroke: #ff0000"/>
     <use xlink:href="#m44d369b3ad" x="145.129412" y="243.529644" style="fill: #ff0000; stroke: #ff0000"/>
     <use xlink:href="#m44d369b3ad" x="146.402567" y="241.044164" style="fill: #ff0000; stroke: #ff0000"/>
     <use xlink:href="#m44d369b3ad" x="147.675722" y="241.724712" style="fill: #ff0000; stroke: #ff0000"/>
     <use xlink:href="#m44d369b3ad" x="148.948877" y="240.748274" style="fill: #ff0000; stroke: #ff0000"/>
     <use xlink:href="#m44d369b3ad" x="150.222032" y="239.860603" style="fill: #ff0000; stroke: #ff0000"/>
     <use xlink:href="#m44d369b3ad" x="151.495187" y="238.795397" style="fill: #ff0000; stroke: #ff0000"/>
     <use xlink:href="#m44d369b3ad" x="152.768342" y="238.026082" style="fill: #ff0000; stroke: #ff0000"/>
     <use xlink:href="#m44d369b3ad" x="154.041497" y="237.020055" style="fill: #ff0000; stroke: #ff0000"/>
     <use xlink:href="#m44d369b3ad" x="155.314652" y="236.073205" style="fill: #ff0000; stroke: #ff0000"/>
     <use xlink:href="#m44d369b3ad" x="156.587807" y="234.889644" style="fill: #ff0000; stroke: #ff0000"/>
     <use xlink:href="#m44d369b3ad" x="157.860963" y="234.327452" style="fill: #ff0000; stroke: #ff0000"/>
     <use xlink:href="#m44d369b3ad" x="159.134118" y="233.351014" style="fill: #ff0000; stroke: #ff0000"/>
     <use xlink:href="#m44d369b3ad" x="160.407273" y="232.463342" style="fill: #ff0000; stroke: #ff0000"/>
     <use xlink:href="#m44d369b3ad" x="161.680428" y="231.338959" style="fill: #ff0000; stroke: #ff0000"/>
     <use xlink:href="#m44d369b3ad" x="162.953583" y="230.628822" style="fill: #ff0000; stroke: #ff0000"/>
     <use xlink:href="#m44d369b3ad" x="164.226738" y="227.788274" style="fill: #ff0000; stroke: #ff0000"/>
     <use xlink:href="#m44d369b3ad" x="165.499893" y="228.735123" style="fill: #ff0000; stroke: #ff0000"/>
     <use xlink:href="#m44d369b3ad" x="166.773048" y="226.841425" style="fill: #ff0000; stroke: #ff0000"/>
     <use xlink:href="#m44d369b3ad" x="168.046203" y="226.930192" style="fill: #ff0000; stroke: #ff0000"/>
     <use xlink:href="#m44d369b3ad" x="169.319358" y="225.953753" style="fill: #ff0000; stroke: #ff0000"/>
     <use xlink:href="#m44d369b3ad" x="170.592513" y="225.066082" style="fill: #ff0000; stroke: #ff0000"/>
     <use xlink:href="#m44d369b3ad" x="171.865668" y="224.000877" style="fill: #ff0000; stroke: #ff0000"/>
     <use xlink:href="#m44d369b3ad" x="173.138824" y="223.231562" style="fill: #ff0000; stroke: #ff0000"/>
     <use xlink:href="#m44d369b3ad" x="174.411979" y="222.225534" style="fill: #ff0000; stroke: #ff0000"/>
     <use xlink:href="#m44d369b3ad" x="175.685134" y="221.160329" style="fill: #ff0000; stroke: #ff0000"/>
     <use xlink:href="#m44d369b3ad" x="176.958289" y="205.06389" style="fill: #ff0000; stroke: #ff0000"/>
     <use xlink:href="#m44d369b3ad" x="178.231444" y="219.532932" style="fill: #ff0000; stroke: #ff0000"/>
     <use xlink:href="#m44d369b3ad" x="179.504599" y="218.556493" style="fill: #ff0000; stroke: #ff0000"/>
     <use xlink:href="#m44d369b3ad" x="180.777754" y="217.668822" style="fill: #ff0000; stroke: #ff0000"/>
     <use xlink:href="#m44d369b3ad" x="182.050909" y="216.426082" style="fill: #ff0000; stroke: #ff0000"/>
     <use xlink:href="#m44d369b3ad" x="183.324064" y="215.834301" style="fill: #ff0000; stroke: #ff0000"/>
     <use xlink:href="#m44d369b3ad" x="184.597219" y="214.769096" style="fill: #ff0000; stroke: #ff0000"/>
     <use xlink:href="#m44d369b3ad" x="185.870374" y="213.940603" style="fill: #ff0000; stroke: #ff0000"/>
     <use xlink:href="#m44d369b3ad" x="187.143529" y="208.851288" style="fill: #ff0000; stroke: #ff0000"/>
     <use xlink:href="#m44d369b3ad" x="188.416684" y="212.135671" style="fill: #ff0000; stroke: #ff0000"/>
     <use xlink:href="#m44d369b3ad" x="189.68984" y="211.159233" style="fill: #ff0000; stroke: #ff0000"/>
     <use xlink:href="#m44d369b3ad" x="190.962995" y="210.271562" style="fill: #ff0000; stroke: #ff0000"/>
     <use xlink:href="#m44d369b3ad" x="192.23615" y="209.206356" style="fill: #ff0000; stroke: #ff0000"/>
     <use xlink:href="#m44d369b3ad" x="193.509305" y="208.437041" style="fill: #ff0000; stroke: #ff0000"/>
     <use xlink:href="#m44d369b3ad" x="194.78246" y="207.431014" style="fill: #ff0000; stroke: #ff0000"/>
     <use xlink:href="#m44d369b3ad" x="196.055615" y="206.484164" style="fill: #ff0000; stroke: #ff0000"/>
     <use xlink:href="#m44d369b3ad" x="197.32877" y="205.300603" style="fill: #ff0000; stroke: #ff0000"/>
     <use xlink:href="#m44d369b3ad" x="198.601925" y="204.738411" style="fill: #ff0000; stroke: #ff0000"/>
     <use xlink:href="#m44d369b3ad" x="199.87508" y="203.761973" style="fill: #ff0000; stroke: #ff0000"/>
     <use xlink:href="#m44d369b3ad" x="201.148235" y="202.874301" style="fill: #ff0000; stroke: #ff0000"/>
     <use xlink:href="#m44d369b3ad" x="202.42139" y="201.749918" style="fill: #ff0000; stroke: #ff0000"/>
     <use xlink:href="#m44d369b3ad" x="203.694545" y="201.039781" style="fill: #ff0000; stroke: #ff0000"/>
     <use xlink:href="#m44d369b3ad" x="204.967701" y="199.856219" style="fill: #ff0000; stroke: #ff0000"/>
     <use xlink:href="#m44d369b3ad" x="206.240856" y="199.146082" style="fill: #ff0000; stroke: #ff0000"/>
     <use xlink:href="#m44d369b3ad" x="207.514011" y="197.489096" style="fill: #ff0000; stroke: #ff0000"/>
     <use xlink:href="#m44d369b3ad" x="208.787166" y="197.341151" style="fill: #ff0000; stroke: #ff0000"/>
     <use xlink:href="#m44d369b3ad" x="210.060321" y="196.364712" style="fill: #ff0000; stroke: #ff0000"/>
     <use xlink:href="#m44d369b3ad" x="211.333476" y="195.477041" style="fill: #ff0000; stroke: #ff0000"/>
     <use xlink:href="#m44d369b3ad" x="212.606631" y="194.411836" style="fill: #ff0000; stroke: #ff0000"/>
     <use xlink:href="#m44d369b3ad" x="213.879786" y="193.642521" style="fill: #ff0000; stroke: #ff0000"/>
     <use xlink:href="#m44d369b3ad" x="215.152941" y="192.636493" style="fill: #ff0000; stroke: #ff0000"/>
     <use xlink:href="#m44d369b3ad" x="216.426096" y="189.914301" style="fill: #ff0000; stroke: #ff0000"/>
     <use xlink:href="#m44d369b3ad" x="217.699251" y="190.387726" style="fill: #ff0000; stroke: #ff0000"/>
     <use xlink:href="#m44d369b3ad" x="218.972406" y="189.94389" style="fill: #ff0000; stroke: #ff0000"/>
     <use xlink:href="#m44d369b3ad" x="220.245561" y="188.967452" style="fill: #ff0000; stroke: #ff0000"/>
     <use xlink:href="#m44d369b3ad" x="221.518717" y="188.079781" style="fill: #ff0000; stroke: #ff0000"/>
     <use xlink:href="#m44d369b3ad" x="222.791872" y="186.126904" style="fill: #ff0000; stroke: #ff0000"/>
     <use xlink:href="#m44d369b3ad" x="224.065027" y="186.24526" style="fill: #ff0000; stroke: #ff0000"/>
     <use xlink:href="#m44d369b3ad" x="225.338182" y="185.180055" style="fill: #ff0000; stroke: #ff0000"/>
     <use xlink:href="#m44d369b3ad" x="226.611337" y="184.351562" style="fill: #ff0000; stroke: #ff0000"/>
     <use xlink:href="#m44d369b3ad" x="227.884492" y="174.764712" style="fill: #ff0000; stroke: #ff0000"/>
     <use xlink:href="#m44d369b3ad" x="229.157647" y="182.54663" style="fill: #ff0000; stroke: #ff0000"/>
     <use xlink:href="#m44d369b3ad" x="230.430802" y="181.570192" style="fill: #ff0000; stroke: #ff0000"/>
     <use xlink:href="#m44d369b3ad" x="231.703957" y="180.682521" style="fill: #ff0000; stroke: #ff0000"/>
     <use xlink:href="#m44d369b3ad" x="232.977112" y="179.617315" style="fill: #ff0000; stroke: #ff0000"/>
     <use xlink:href="#m44d369b3ad" x="234.250267" y="178.848" style="fill: #ff0000; stroke: #ff0000"/>
     <use xlink:href="#m44d369b3ad" x="235.523422" y="177.841973" style="fill: #ff0000; stroke: #ff0000"/>
     <use xlink:href="#m44d369b3ad" x="236.796578" y="176.895123" style="fill: #ff0000; stroke: #ff0000"/>
     <use xlink:href="#m44d369b3ad" x="238.069733" y="175.711562" style="fill: #ff0000; stroke: #ff0000"/>
     <use xlink:href="#m44d369b3ad" x="239.342888" y="175.14937" style="fill: #ff0000; stroke: #ff0000"/>
     <use xlink:href="#m44d369b3ad" x="240.616043" y="174.172932" style="fill: #ff0000; stroke: #ff0000"/>
     <use xlink:href="#m44d369b3ad" x="241.889198" y="173.28526" style="fill: #ff0000; stroke: #ff0000"/>
     <use xlink:href="#m44d369b3ad" x="243.162353" y="172.160877" style="fill: #ff0000; stroke: #ff0000"/>
     <use xlink:href="#m44d369b3ad" x="244.435508" y="171.45074" style="fill: #ff0000; stroke: #ff0000"/>
     <use xlink:href="#m44d369b3ad" x="245.708663" y="170.030466" style="fill: #ff0000; stroke: #ff0000"/>
     <use xlink:href="#m44d369b3ad" x="246.981818" y="169.557041" style="fill: #ff0000; stroke: #ff0000"/>
     <use xlink:href="#m44d369b3ad" x="248.254973" y="167.189918" style="fill: #ff0000; stroke: #ff0000"/>
     <use xlink:href="#m44d369b3ad" x="249.528128" y="167.75211" style="fill: #ff0000; stroke: #ff0000"/>
     <use xlink:href="#m44d369b3ad" x="250.801283" y="166.775671" style="fill: #ff0000; stroke: #ff0000"/>
     <use xlink:href="#m44d369b3ad" x="252.074439" y="165.888" style="fill: #ff0000; stroke: #ff0000"/>
     <use xlink:href="#m44d369b3ad" x="253.347594" y="164.822795" style="fill: #ff0000; stroke: #ff0000"/>
     <use xlink:href="#m44d369b3ad" x="254.620749" y="164.053479" style="fill: #ff0000; stroke: #ff0000"/>
     <use xlink:href="#m44d369b3ad" x="255.893904" y="163.047452" style="fill: #ff0000; stroke: #ff0000"/>
     <use xlink:href="#m44d369b3ad" x="257.167059" y="161.982247" style="fill: #ff0000; stroke: #ff0000"/>
     <use xlink:href="#m44d369b3ad" x="258.440214" y="160.561973" style="fill: #ff0000; stroke: #ff0000"/>
     <use xlink:href="#m44d369b3ad" x="259.713369" y="160.354849" style="fill: #ff0000; stroke: #ff0000"/>
     <use xlink:href="#m44d369b3ad" x="260.986524" y="159.378411" style="fill: #ff0000; stroke: #ff0000"/>
     <use xlink:href="#m44d369b3ad" x="262.259679" y="158.49074" style="fill: #ff0000; stroke: #ff0000"/>
     <use xlink:href="#m44d369b3ad" x="263.532834" y="157.248" style="fill: #ff0000; stroke: #ff0000"/>
     <use xlink:href="#m44d369b3ad" x="264.805989" y="156.656219" style="fill: #ff0000; stroke: #ff0000"/>
     <use xlink:href="#m44d369b3ad" x="266.079144" y="155.591014" style="fill: #ff0000; stroke: #ff0000"/>
     <use xlink:href="#m44d369b3ad" x="267.352299" y="154.762521" style="fill: #ff0000; stroke: #ff0000"/>
     <use xlink:href="#m44d369b3ad" x="268.625455" y="114.166356" style="fill: #ff0000; stroke: #ff0000"/>
     <use xlink:href="#m44d369b3ad" x="269.89861" y="152.957589" style="fill: #ff0000; stroke: #ff0000"/>
     <use xlink:href="#m44d369b3ad" x="271.171765" y="151.981151" style="fill: #ff0000; stroke: #ff0000"/>
     <use xlink:href="#m44d369b3ad" x="272.44492" y="151.093479" style="fill: #ff0000; stroke: #ff0000"/>
     <use xlink:href="#m44d369b3ad" x="273.718075" y="150.028274" style="fill: #ff0000; stroke: #ff0000"/>
     <use xlink:href="#m44d369b3ad" x="274.99123" y="149.258959" style="fill: #ff0000; stroke: #ff0000"/>
     <use xlink:href="#m44d369b3ad" x="276.264385" y="148.252932" style="fill: #ff0000; stroke: #ff0000"/>
     <use xlink:href="#m44d369b3ad" x="277.53754" y="147.306082" style="fill: #ff0000; stroke: #ff0000"/>
     <use xlink:href="#m44d369b3ad" x="278.810695" y="146.122521" style="fill: #ff0000; stroke: #ff0000"/>
     <use xlink:href="#m44d369b3ad" x="280.08385" y="145.560329" style="fill: #ff0000; stroke: #ff0000"/>
     <use xlink:href="#m44d369b3ad" x="281.357005" y="144.58389" style="fill: #ff0000; stroke: #ff0000"/>
     <use xlink:href="#m44d369b3ad" x="282.63016" y="143.696219" style="fill: #ff0000; stroke: #ff0000"/>
     <use xlink:href="#m44d369b3ad" x="283.903316" y="142.571836" style="fill: #ff0000; stroke: #ff0000"/>
     <use xlink:href="#m44d369b3ad" x="285.176471" y="141.861699" style="fill: #ff0000; stroke: #ff0000"/>
     <use xlink:href="#m44d369b3ad" x="286.449626" y="140.678137" style="fill: #ff0000; stroke: #ff0000"/>
     <use xlink:href="#m44d369b3ad" x="287.722781" y="139.968" style="fill: #ff0000; stroke: #ff0000"/>
     <use xlink:href="#m44d369b3ad" x="288.995936" y="138.311014" style="fill: #ff0000; stroke: #ff0000"/>
     <use xlink:href="#m44d369b3ad" x="290.269091" y="138.163068" style="fill: #ff0000; stroke: #ff0000"/>
     <use xlink:href="#m44d369b3ad" x="291.542246" y="137.18663" style="fill: #ff0000; stroke: #ff0000"/>
     <use xlink:href="#m44d369b3ad" x="292.815401" y="136.298959" style="fill: #ff0000; stroke: #ff0000"/>
     <use xlink:href="#m44d369b3ad" x="294.088556" y="135.233753" style="fill: #ff0000; stroke: #ff0000"/>
     <use xlink:href="#m44d369b3ad" x="295.361711" y="134.464438" style="fill: #ff0000; stroke: #ff0000"/>
     <use xlink:href="#m44d369b3ad" x="296.634866" y="133.458411" style="fill: #ff0000; stroke: #ff0000"/>
     <use xlink:href="#m44d369b3ad" x="297.908021" y="132.156493" style="fill: #ff0000; stroke: #ff0000"/>
     <use xlink:href="#m44d369b3ad" x="299.181176" y="131.209644" style="fill: #ff0000; stroke: #ff0000"/>
     <use xlink:href="#m44d369b3ad" x="300.454332" y="130.765808" style="fill: #ff0000; stroke: #ff0000"/>
     <use xlink:href="#m44d369b3ad" x="301.727487" y="129.78937" style="fill: #ff0000; stroke: #ff0000"/>
     <use xlink:href="#m44d369b3ad" x="303.000642" y="128.901699" style="fill: #ff0000; stroke: #ff0000"/>
     <use xlink:href="#m44d369b3ad" x="304.273797" y="127.422247" style="fill: #ff0000; stroke: #ff0000"/>
     <use xlink:href="#m44d369b3ad" x="305.546952" y="127.067178" style="fill: #ff0000; stroke: #ff0000"/>
     <use xlink:href="#m44d369b3ad" x="306.820107" y="126.001973" style="fill: #ff0000; stroke: #ff0000"/>
     <use xlink:href="#m44d369b3ad" x="308.093262" y="125.173479" style="fill: #ff0000; stroke: #ff0000"/>
     <use xlink:href="#m44d369b3ad" x="309.366417" y="122.688" style="fill: #ff0000; stroke: #ff0000"/>
     <use xlink:href="#m44d369b3ad" x="310.639572" y="123.368548" style="fill: #ff0000; stroke: #ff0000"/>
     <use xlink:href="#m44d369b3ad" x="311.912727" y="122.39211" style="fill: #ff0000; stroke: #ff0000"/>
     <use xlink:href="#m44d369b3ad" x="313.185882" y="121.504438" style="fill: #ff0000; stroke: #ff0000"/>
     <use xlink:href="#m44d369b3ad" x="314.459037" y="120.439233" style="fill: #ff0000; stroke: #ff0000"/>
     <use xlink:href="#m44d369b3ad" x="315.732193" y="119.669918" style="fill: #ff0000; stroke: #ff0000"/>
     <use xlink:href="#m44d369b3ad" x="317.005348" y="118.66389" style="fill: #ff0000; stroke: #ff0000"/>
     <use xlink:href="#m44d369b3ad" x="318.278503" y="117.717041" style="fill: #ff0000; stroke: #ff0000"/>
     <use xlink:href="#m44d369b3ad" x="319.551658" y="116.533479" style="fill: #ff0000; stroke: #ff0000"/>
     <use xlink:href="#m44d369b3ad" x="320.824813" y="115.971288" style="fill: #ff0000; stroke: #ff0000"/>
     <use xlink:href="#m44d369b3ad" x="322.097968" y="114.994849" style="fill: #ff0000; stroke: #ff0000"/>
     <use xlink:href="#m44d369b3ad" x="323.371123" y="114.107178" style="fill: #ff0000; stroke: #ff0000"/>
     <use xlink:href="#m44d369b3ad" x="324.644278" y="112.982795" style="fill: #ff0000; stroke: #ff0000"/>
     <use xlink:href="#m44d369b3ad" x="325.917433" y="112.272658" style="fill: #ff0000; stroke: #ff0000"/>
     <use xlink:href="#m44d369b3ad" x="327.190588" y="110.378959" style="fill: #ff0000; stroke: #ff0000"/>
     <use xlink:href="#m44d369b3ad" x="328.463743" y="110.378959" style="fill: #ff0000; stroke: #ff0000"/>
     <use xlink:href="#m44d369b3ad" x="329.736898" y="108.48526" style="fill: #ff0000; stroke: #ff0000"/>
     <use xlink:href="#m44d369b3ad" x="331.010053" y="108.574027" style="fill: #ff0000; stroke: #ff0000"/>
     <use xlink:href="#m44d369b3ad" x="332.283209" y="107.597589" style="fill: #ff0000; stroke: #ff0000"/>
     <use xlink:href="#m44d369b3ad" x="333.556364" y="106.709918" style="fill: #ff0000; stroke: #ff0000"/>
     <use xlink:href="#m44d369b3ad" x="334.829519" y="105.644712" style="fill: #ff0000; stroke: #ff0000"/>
     <use xlink:href="#m44d369b3ad" x="336.102674" y="104.875397" style="fill: #ff0000; stroke: #ff0000"/>
     <use xlink:href="#m44d369b3ad" x="337.375829" y="103.86937" style="fill: #ff0000; stroke: #ff0000"/>
     <use xlink:href="#m44d369b3ad" x="338.648984" y="102.804164" style="fill: #ff0000; stroke: #ff0000"/>
     <use xlink:href="#m44d369b3ad" x="339.922139" y="100.910466" style="fill: #ff0000; stroke: #ff0000"/>
     <use xlink:href="#m44d369b3ad" x="341.195294" y="101.176767" style="fill: #ff0000; stroke: #ff0000"/>
     <use xlink:href="#m44d369b3ad" x="342.468449" y="100.200329" style="fill: #ff0000; stroke: #ff0000"/>
     <use xlink:href="#m44d369b3ad" x="343.741604" y="99.312658" style="fill: #ff0000; stroke: #ff0000"/>
     <use xlink:href="#m44d369b3ad" x="345.014759" y="98.069918" style="fill: #ff0000; stroke: #ff0000"/>
     <use xlink:href="#m44d369b3ad" x="346.287914" y="97.478137" style="fill: #ff0000; stroke: #ff0000"/>
     <use xlink:href="#m44d369b3ad" x="347.56107" y="96.412932" style="fill: #ff0000; stroke: #ff0000"/>
     <use xlink:href="#m44d369b3ad" x="348.834225" y="95.584438" style="fill: #ff0000; stroke: #ff0000"/>
     <use xlink:href="#m44d369b3ad" x="350.10738" y="91.441973" style="fill: #ff0000; stroke: #ff0000"/>
     <use xlink:href="#m44d369b3ad" x="351.380535" y="93.779507" style="fill: #ff0000; stroke: #ff0000"/>
     <use xlink:href="#m44d369b3ad" x="352.65369" y="92.803068" style="fill: #ff0000; stroke: #ff0000"/>
     <use xlink:href="#m44d369b3ad" x="353.926845" y="91.915397" style="fill: #ff0000; stroke: #ff0000"/>
     <use xlink:href="#m44d369b3ad" x="355.2" y="90.850192" style="fill: #ff0000; stroke: #ff0000"/>
     <use xlink:href="#m44d369b3ad" x="356.473155" y="90.080877" style="fill: #ff0000; stroke: #ff0000"/>
     <use xlink:href="#m44d369b3ad" x="357.74631" y="89.074849" style="fill: #ff0000; stroke: #ff0000"/>
     <use xlink:href="#m44d369b3ad" x="359.019465" y="88.128" style="fill: #ff0000; stroke: #ff0000"/>
     <use xlink:href="#m44d369b3ad" x="360.29262" y="86.944438" style="fill: #ff0000; stroke: #ff0000"/>
     <use xlink:href="#m44d369b3ad" x="361.565775" y="86.382247" style="fill: #ff0000; stroke: #ff0000"/>
     <use xlink:href="#m44d369b3ad" x="362.83893" y="85.405808" style="fill: #ff0000; stroke: #ff0000"/>
     <use xlink:href="#m44d369b3ad" x="364.112086" y="84.518137" style="fill: #ff0000; stroke: #ff0000"/>
     <use xlink:href="#m44d369b3ad" x="365.385241" y="83.393753" style="fill: #ff0000; stroke: #ff0000"/>
     <use xlink:href="#m44d369b3ad" x="366.658396" y="82.683616" style="fill: #ff0000; stroke: #ff0000"/>
     <use xlink:href="#m44d369b3ad" x="367.931551" y="81.500055" style="fill: #ff0000; stroke: #ff0000"/>
     <use xlink:href="#m44d369b3ad" x="369.204706" y="80.789918" style="fill: #ff0000; stroke: #ff0000"/>
     <use xlink:href="#m44d369b3ad" x="370.477861" y="79.132932" style="fill: #ff0000; stroke: #ff0000"/>
     <use xlink:href="#m44d369b3ad" x="371.751016" y="78.984986" style="fill: #ff0000; stroke: #ff0000"/>
     <use xlink:href="#m44d369b3ad" x="373.024171" y="78.008548" style="fill: #ff0000; stroke: #ff0000"/>
     <use xlink:href="#m44d369b3ad" x="374.297326" y="77.120877" style="fill: #ff0000; stroke: #ff0000"/>
     <use xlink:href="#m44d369b3ad" x="375.570481" y="76.055671" style="fill: #ff0000; stroke: #ff0000"/>
     <use xlink:href="#m44d369b3ad" x="376.843636" y="75.286356" style="fill: #ff0000; stroke: #ff0000"/>
     <use xlink:href="#m44d369b3ad" x="378.116791" y="74.280329" style="fill: #ff0000; stroke: #ff0000"/>
     <use xlink:href="#m44d369b3ad" x="379.389947" y="72.504986" style="fill: #ff0000; stroke: #ff0000"/>
     <use xlink:href="#m44d369b3ad" x="380.663102" y="72.031562" style="fill: #ff0000; stroke: #ff0000"/>
     <use xlink:href="#m44d369b3ad" x="381.936257" y="71.587726" style="fill: #ff0000; stroke: #ff0000"/>
     <use xlink:href="#m44d369b3ad" x="383.209412" y="70.611288" style="fill: #ff0000; stroke: #ff0000"/>
     <use xlink:href="#m44d369b3ad" x="384.482567" y="69.723616" style="fill: #ff0000; stroke: #ff0000"/>
     <use xlink:href="#m44d369b3ad" x="385.755722" y="53.568" style="fill: #ff0000; stroke: #ff0000"/>
     <use xlink:href="#m44d369b3ad" x="387.028877" y="67.889096" style="fill: #ff0000; stroke: #ff0000"/>
     <use xlink:href="#m44d369b3ad" x="388.302032" y="66.82389" style="fill: #ff0000; stroke: #ff0000"/>
     <use xlink:href="#m44d369b3ad" x="389.575187" y="65.995397" style="fill: #ff0000; stroke: #ff0000"/>
     <use xlink:href="#m44d369b3ad" x="390.848342" y="63.036493" style="fill: #ff0000; stroke: #ff0000"/>
     <use xlink:href="#m44d369b3ad" x="392.121497" y="64.190466" style="fill: #ff0000; stroke: #ff0000"/>
     <use xlink:href="#m44d369b3ad" x="393.394652" y="63.214027" style="fill: #ff0000; stroke: #ff0000"/>
     <use xlink:href="#m44d369b3ad" x="394.667807" y="62.326356" style="fill: #ff0000; stroke: #ff0000"/>
     <use xlink:href="#m44d369b3ad" x="395.940963" y="61.261151" style="fill: #ff0000; stroke: #ff0000"/>
     <use xlink:href="#m44d369b3ad" x="397.214118" y="60.491836" style="fill: #ff0000; stroke: #ff0000"/>
     <use xlink:href="#m44d369b3ad" x="398.487273" y="59.485808" style="fill: #ff0000; stroke: #ff0000"/>
    </g>
   </g>
   <g id="patch_3">
    <path d="M 57.6 307.584 
L 57.6 41.472 
" style="fill: none; stroke: #000000; stroke-width: 0.8; stroke-linejoin: miter; stroke-linecap: square"/>
   </g>
   <g id="patch_4">
    <path d="M 414.72 307.584 
L 414.72 41.472 
" style="fill: none; stroke: #000000; stroke-width: 0.8; stroke-linejoin: miter; stroke-linecap: square"/>
   </g>
   <g id="patch_5">
    <path d="M 57.6 307.584 
L 414.72 307.584 
" style="fill: none; stroke: #000000; stroke-width: 0.8; stroke-linejoin: miter; stroke-linecap: square"/>
   </g>
   <g id="patch_6">
    <path d="M 57.6 41.472 
L 414.72 41.472 
" style="fill: none; stroke: #000000; stroke-width: 0.8; stroke-linejoin: miter; stroke-linecap: square"/>
   </g>
   <g id="text_15">
    <!-- 5 3-step -->
    <g transform="translate(211.474687 35.472) scale(0.12 -0.12)">
     <defs>
      <path id="DejaVuSans-20" transform="scale(0.015625)"/>
      <path id="DejaVuSans-2d" d="M 313 2009 
L 1997 2009 
L 1997 1497 
L 313 1497 
L 313 2009 
z
" transform="scale(0.015625)"/>
      <path id="DejaVuSans-73" d="M 2834 3397 
L 2834 2853 
Q 2591 2978 2328 3040 
Q 2066 3103 1784 3103 
Q 1356 3103 1142 2972 
Q 928 2841 928 2578 
Q 928 2378 1081 2264 
Q 1234 2150 1697 2047 
L 1894 2003 
Q 2506 1872 2764 1633 
Q 3022 1394 3022 966 
Q 3022 478 2636 193 
Q 2250 -91 1575 -91 
Q 1294 -91 989 -36 
Q 684 19 347 128 
L 347 722 
Q 666 556 975 473 
Q 1284 391 1588 391 
Q 1994 391 2212 530 
Q 2431 669 2431 922 
Q 2431 1156 2273 1281 
Q 2116 1406 1581 1522 
L 1381 1569 
Q 847 1681 609 1914 
Q 372 2147 372 2553 
Q 372 3047 722 3315 
Q 1072 3584 1716 3584 
Q 2034 3584 2315 3537 
Q 2597 3491 2834 3397 
z
" transform="scale(0.015625)"/>
      <path id="DejaVuSans-74" d="M 1172 4494 
L 1172 3500 
L 2356 3500 
L 2356 3053 
L 1172 3053 
L 1172 1153 
Q 1172 725 1289 603 
Q 1406 481 1766 481 
L 2356 481 
L 2356 0 
L 1766 0 
Q 1100 0 847 248 
Q 594 497 594 1153 
L 594 3053 
L 172 3053 
L 172 3500 
L 594 3500 
L 594 4494 
L 1172 4494 
z
" transform="scale(0.015625)"/>
      <path id="DejaVuSans-70" d="M 1159 525 
L 1159 -1331 
L 581 -1331 
L 581 3500 
L 1159 3500 
L 1159 2969 
Q 1341 3281 1617 3432 
Q 1894 3584 2278 3584 
Q 2916 3584 3314 3078 
Q 3713 2572 3713 1747 
Q 3713 922 3314 415 
Q 2916 -91 2278 -91 
Q 1894 -91 1617 61 
Q 1341 213 1159 525 
z
M 3116 1747 
Q 3116 2381 2855 2742 
Q 2594 3103 2138 3103 
Q 1681 3103 1420 2742 
Q 1159 2381 1159 1747 
Q 1159 1113 1420 752 
Q 1681 391 2138 391 
Q 2594 391 2855 752 
Q 3116 1113 3116 1747 
z
" transform="scale(0.015625)"/>
     </defs>
     <use xlink:href="#DejaVuSans-35"/>
     <use xlink:href="#DejaVuSans-20" transform="translate(63.623047 0)"/>
     <use xlink:href="#DejaVuSans-33" transform="translate(95.410156 0)"/>
     <use xlink:href="#DejaVuSans-2d" transform="translate(159.033203 0)"/>
     <use xlink:href="#DejaVuSans-73" transform="translate(195.117188 0)"/>
     <use xlink:href="#DejaVuSans-74" transform="translate(247.216797 0)"/>
     <use xlink:href="#DejaVuSans-65" transform="translate(286.425781 0)"/>
     <use xlink:href="#DejaVuSans-70" transform="translate(347.949219 0)"/>
    </g>
   </g>
   <g id="legend_1">
    <g id="patch_7">
     <path d="M 64.6 78.82825 
L 162.025 78.82825 
Q 164.025 78.82825 164.025 76.82825 
L 164.025 48.472 
Q 164.025 46.472 162.025 46.472 
L 64.6 46.472 
Q 62.6 46.472 62.6 48.472 
L 62.6 76.82825 
Q 62.6 78.82825 64.6 78.82825 
z
" style="fill: #ffffff; opacity: 0.8; stroke: #cccccc; stroke-linejoin: miter"/>
    </g>
    <g id="line2d_14">
     <path d="M 66.6 54.570437 
L 76.6 54.570437 
L 86.6 54.570437 
" style="fill: none; stroke: #0000ff; stroke-linecap: square"/>
    </g>
    <g id="text_16">
     <!-- Loop Line -->
     <g transform="translate(94.6 58.070437) scale(0.1 -0.1)">
      <defs>
       <path id="DejaVuSans-4c" d="M 628 4666 
L 1259 4666 
L 1259 531 
L 3531 531 
L 3531 0 
L 628 0 
L 628 4666 
z
" transform="scale(0.015625)"/>
       <path id="DejaVuSans-6f" d="M 1959 3097 
Q 1497 3097 1228 2736 
Q 959 2375 959 1747 
Q 959 1119 1226 758 
Q 1494 397 1959 397 
Q 2419 397 2687 759 
Q 2956 1122 2956 1747 
Q 2956 2369 2687 2733 
Q 2419 3097 1959 3097 
z
M 1959 3584 
Q 2709 3584 3137 3096 
Q 3566 2609 3566 1747 
Q 3566 888 3137 398 
Q 2709 -91 1959 -91 
Q 1206 -91 779 398 
Q 353 888 353 1747 
Q 353 2609 779 3096 
Q 1206 3584 1959 3584 
z
" transform="scale(0.015625)"/>
       <path id="DejaVuSans-69" d="M 603 3500 
L 1178 3500 
L 1178 0 
L 603 0 
L 603 3500 
z
M 603 4863 
L 1178 4863 
L 1178 4134 
L 603 4134 
L 603 4863 
z
" transform="scale(0.015625)"/>
      </defs>
      <use xlink:href="#DejaVuSans-4c"/>
      <use xlink:href="#DejaVuSans-6f" transform="translate(53.962891 0)"/>
      <use xlink:href="#DejaVuSans-6f" transform="translate(115.144531 0)"/>
      <use xlink:href="#DejaVuSans-70" transform="translate(176.326172 0)"/>
      <use xlink:href="#DejaVuSans-20" transform="translate(239.802734 0)"/>
      <use xlink:href="#DejaVuSans-4c" transform="translate(271.589844 0)"/>
      <use xlink:href="#DejaVuSans-69" transform="translate(327.302734 0)"/>
      <use xlink:href="#DejaVuSans-6e" transform="translate(355.085938 0)"/>
      <use xlink:href="#DejaVuSans-65" transform="translate(418.464844 0)"/>
     </g>
    </g>
    <g id="PathCollection_2">
     <g>
      <use xlink:href="#m44d369b3ad" x="76.6" y="70.123562" style="fill: #ff0000; stroke: #ff0000"/>
     </g>
    </g>
    <g id="text_17">
     <!-- 5 3-step 2^5 -->
     <g transform="translate(94.6 72.748562) scale(0.1 -0.1)">
      <use xlink:href="#DejaVuSans-35"/>
      <use xlink:href="#DejaVuSans-20" transform="translate(63.623047 0)"/>
      <use xlink:href="#DejaVuSans-33" transform="translate(95.410156 0)"/>
      <use xlink:href="#DejaVuSans-2d" transform="translate(159.033203 0)"/>
      <use xlink:href="#DejaVuSans-73" transform="translate(195.117188 0)"/>
      <use xlink:href="#DejaVuSans-74" transform="translate(247.216797 0)"/>
      <use xlink:href="#DejaVuSans-65" transform="translate(286.425781 0)"/>
      <use xlink:href="#DejaVuSans-70" transform="translate(347.949219 0)"/>
      <use xlink:href="#DejaVuSans-20" transform="translate(411.425781 0)"/>
      <use xlink:href="#DejaVuSans-32" transform="translate(443.212891 0)"/>
      <use xlink:href="#DejaVuSans-5e" transform="translate(506.835938 0)"/>
      <use xlink:href="#DejaVuSans-35" transform="translate(590.625 0)"/>
     </g>
    </g>
   </g>
  </g>
 </g>
 <defs>
  <clipPath id="p6cdc28939e">
   <rect x="57.6" y="41.472" width="357.12" height="266.112"/>
  </clipPath>
 </defs>
</svg>
